<?xml version="1.0" encoding="iso-8859-1"?>
<!-- Generator: Adobe Illustrator 19.0.0, SVG Export Plug-In . SVG Version: 6.00 Build 0)  -->
<svg version="1.1" id="Capa_1" xmlns="http://www.w3.org/2000/svg" xmlns:xlink="http://www.w3.org/1999/xlink" x="0px" y="0px"
	 viewBox="0 0 512.001 512.001" style="enable-background:new 0 0 512.001 512.001;" xml:space="preserve">
<path style="fill:#F09D2D;" d="M314.1,104.42H197.902c-35.486,0-64.252,28.767-64.252,64.252v320.829
	c0,12.426,10.074,22.5,22.5,22.5h199.703c12.426,0,22.5-10.074,22.5-22.5V168.672C378.352,133.186,349.586,104.42,314.1,104.42z"/>
<rect x="133.648" y="299.752" style="fill:#0081C6;" width="244.702" height="94.705"/>
<path style="fill:#FFFFFF;" d="M322.207,214.403H189.795c-8.868,0-16.058,7.189-16.058,16.059v217.389
	c0,8.868,7.189,16.058,16.058,16.058h132.411c8.868,0,16.059-7.189,16.059-16.058V230.462
	C338.265,221.592,331.075,214.403,322.207,214.403z"/>
<path style="fill:#0081C6;" d="M307.67,104.42H204.331V10.885C204.331,4.873,209.204,0,215.216,0h81.57
	c6.012,0,10.885,4.873,10.885,10.885v93.535H307.67z"/>
<path style="opacity:0.2;enable-background:new    ;" d="M231.656,42.845c0,13.445,10.9,24.345,24.345,24.345
	s24.345-10.899,24.345-24.345C280.346,42.845,231.656,42.845,231.656,42.845z"/>
<rect x="204.333" y="34.604" style="fill:#0081C6;" width="103.342" height="16.482"/>
<rect x="204.333" y="34.604" style="opacity:0.2;enable-background:new    ;" width="103.342" height="16.482"/>
<circle style="fill:#F3C74F;" cx="255.999" cy="299.752" r="24.437"/>
<g>
	<path style="fill:#E6595A;" d="M256.001,263.508c-4.552,0-8.241-3.689-8.241-8.241V243.67c0-4.552,3.689-8.241,8.241-8.241
		c4.552,0,8.241,3.689,8.241,8.241v11.597C264.242,259.819,260.553,263.508,256.001,263.508z"/>
	<path style="fill:#E6595A;" d="M224.545,276.538c-2.109,0-4.218-0.804-5.828-2.413l-8.2-8.2c-3.218-3.219-3.218-8.437,0-11.655
		c3.219-3.217,8.437-3.217,11.655,0l8.2,8.2c3.218,3.219,3.218,8.437,0,11.655C228.763,275.733,226.653,276.538,224.545,276.538z"/>
	<path style="fill:#E6595A;" d="M211.515,307.994h-11.597c-4.552,0-8.241-3.689-8.241-8.241c0-4.551,3.689-8.241,8.241-8.241h11.597
		c4.552,0,8.241,3.69,8.241,8.241C219.756,304.305,216.066,307.994,211.515,307.994z"/>
	<path style="fill:#E6595A;" d="M216.344,347.651c-2.109,0-4.218-0.805-5.828-2.413c-3.218-3.219-3.218-8.437,0-11.655l8.2-8.2
		c3.219-3.217,8.437-3.217,11.655,0c3.218,3.219,3.218,8.437,0,11.655l-8.2,8.2C220.563,346.846,218.453,347.651,216.344,347.651z"
		/>
	<path style="fill:#E6595A;" d="M256.001,364.077c-4.552,0-8.241-3.689-8.241-8.241v-11.598c0-4.552,3.689-8.241,8.241-8.241
		c4.552,0,8.241,3.689,8.241,8.241v11.598C264.242,360.388,260.553,364.077,256.001,364.077z"/>
	<path style="fill:#E6595A;" d="M295.658,347.651c-2.109,0-4.218-0.805-5.828-2.413l-8.2-8.2c-3.218-3.219-3.218-8.437,0-11.655
		c3.219-3.217,8.437-3.217,11.655,0l8.2,8.2c3.218,3.219,3.218,8.437,0,11.655C299.876,346.846,297.766,347.651,295.658,347.651z"/>
	<path style="fill:#E6595A;" d="M312.084,307.994h-11.597c-4.551,0-8.241-3.689-8.241-8.241c0-4.551,3.69-8.241,8.241-8.241h11.597
		c4.552,0,8.241,3.69,8.241,8.241C320.325,304.305,316.636,307.994,312.084,307.994z"/>
	<path style="fill:#E6595A;" d="M287.457,276.538c-2.109,0-4.218-0.804-5.828-2.413c-3.218-3.219-3.218-8.437,0-11.655l8.2-8.2
		c3.219-3.217,8.437-3.217,11.655,0c3.218,3.219,3.218,8.437,0,11.655l-8.2,8.2C291.676,275.733,289.566,276.538,287.457,276.538z"
		/>
</g>
<g>
	<path style="fill:#394049;" d="M285.333,402.702h-58.671c-4.552,0-8.241-3.689-8.241-8.241c0-4.552,3.689-8.241,8.241-8.241h58.671
		c4.552,0,8.241,3.689,8.241,8.241C293.574,399.012,289.886,402.702,285.333,402.702z"/>
	<path style="fill:#394049;" d="M300.487,431.258h-88.978c-4.552,0-8.241-3.689-8.241-8.241c0-4.552,3.689-8.241,8.241-8.241h88.978
		c4.552,0,8.241,3.689,8.241,8.241C308.728,427.57,305.039,431.258,300.487,431.258z"/>
	<path style="fill:#394049;" d="M190.178,162.889c-4.552,0-8.241-3.689-8.241-8.241v-3.089c0-4.552,3.689-8.241,8.241-8.241
		s8.241,3.689,8.241,8.241v3.089C198.419,159.199,194.729,162.889,190.178,162.889z"/>
	<path style="fill:#394049;" d="M321.825,162.889c-4.552,0-8.241-3.689-8.241-8.241v-3.089c0-4.552,3.689-8.241,8.241-8.241
		c4.552,0,8.241,3.689,8.241,8.241v3.089C330.066,159.199,326.377,162.889,321.825,162.889z"/>
	<path style="fill:#394049;" d="M267.055,178.759c-4.108,0-7.921-1.291-11.054-3.488c-3.133,2.196-6.944,3.488-11.054,3.488
		c-10.64,0-19.294-8.655-19.294-19.295c0-4.552,3.689-8.241,8.241-8.241s8.241,3.689,8.241,8.241c0,1.55,1.261,2.813,2.812,2.813
		c1.55,0,2.813-1.261,2.813-2.813c0-4.552,3.689-8.241,8.241-8.241c4.552,0,8.241,3.689,8.241,8.241c0,1.55,1.261,2.813,2.813,2.813
		c1.55,0,2.813-1.261,2.813-2.813c0-4.552,3.689-8.241,8.241-8.241s8.241,3.689,8.241,8.241
		C286.349,170.104,277.694,178.759,267.055,178.759z"/>
</g>
<g>
	<path style="fill:#FFFFFF;" d="M199.597,185.066h-18.838c-4.552,0-8.241-3.689-8.241-8.241s3.689-8.241,8.241-8.241h18.838
		c4.552,0,8.241,3.689,8.241,8.241S204.149,185.066,199.597,185.066z"/>
	<path style="fill:#FFFFFF;" d="M331.243,185.066h-18.839c-4.551,0-8.241-3.689-8.241-8.241s3.69-8.241,8.241-8.241h18.839
		c4.552,0,8.241,3.689,8.241,8.241S335.795,185.066,331.243,185.066z"/>
</g>
<g>
</g>
<g>
</g>
<g>
</g>
<g>
</g>
<g>
</g>
<g>
</g>
<g>
</g>
<g>
</g>
<g>
</g>
<g>
</g>
<g>
</g>
<g>
</g>
<g>
</g>
<g>
</g>
<g>
</g>
</svg>
