<svg id="Capa_1" enable-background="new 0 0 512 512" height="512" viewBox="0 0 512 512" width="512" xmlns="http://www.w3.org/2000/svg"><g><g><path d="m499.189 411.716-1-1.599c-3.882-6.208-12.062-8.094-18.27-4.212l-27.011 16.891-65.547-104.821c23.281-21.967 31.183-53.076 17.182-75.467-.276-.441-85.198-136.294-85.198-136.294l-123.365 77.142s83.707 133.855 85.223 136.279c14.004 22.395 45.444 28.907 75.392 17.583l65.545 104.818-27.011 16.891c-6.208 3.882-8.094 12.062-4.212 18.27l1 1.599c3.882 6.208 12.061 8.094 18.27 4.212l84.792-53.022c6.207-3.882 8.092-12.062 4.21-18.27z" fill="#c1e5ef"/><path d="m384.439 210.347h-171.581c24.533 39.23 67.265 107.562 68.344 109.288 16.59 26.53 57.65 30.772 91.71 9.474 34.059-21.298 48.221-60.071 31.631-86.602-.086-.138-8.547-13.673-20.104-32.16z" fill="#f6e06e"/><path d="m333.448 204.95h47.618c-25.219-40.344-61.721-98.736-61.721-98.736l-36.233 22.657 1.997-1.249c.001 0 30.251 48.392 48.339 77.328z" fill="#a6aaed"/><path d="m387.317 214.95h-47.618c4.231 6.768 6.924 11.076 6.965 11.143 11.986 19.168 1.754 47.181-22.853 62.568s-54.272 12.323-66.258-6.844c13.054 20.875 23.133 36.991 23.65 37.818 16.59 26.531 57.65 30.772 91.71 9.474s48.221-60.071 31.631-86.602c-.08-.126-7.173-11.472-17.227-27.557z" fill="#dda86a"/><path d="m283.043 173.941-112.525-56.381c-4.848-2.429-10.745-.476-13.174 4.373-15.467 30.871-66.518 132.765-67.604 134.933-11.832 23.615-1.027 53.85 24.231 73.525l-55.378 110.527-28.482-14.271c-6.546-3.28-14.512-.632-17.792 5.914l-.845 1.686c-3.28 6.546-.632 14.512 5.914 17.792l89.409 44.799c6.546 3.28 14.511.632 17.791-5.914l.845-1.686c3.28-6.546.632-14.512-5.914-17.792l-28.482-14.271 55.381-110.53c30.874 8.443 61.55-1.003 73.38-24.613.198-.395 52.021-103.783 67.628-134.92 2.431-4.848.466-10.741-4.383-13.171z" fill="#c1e5ef"/><path d="m99.515 237.358c-5.697 11.37-9.487 18.935-9.774 19.509-14.017 27.975 3.734 65.242 39.649 83.237 35.914 17.995 76.392 9.904 90.409-18.071.13-.26 22.628-45.144 42.443-84.674h-162.727z" fill="#f6e06e"/><path d="m283.043 173.941-30.428-15.246c3.632 1.821 5.104 6.234 3.283 9.867-6.225 12.418-20.139 40.178-31.813 63.469h40.826c9.252-18.458 17.646-35.204 22.515-44.919 2.431-4.848.466-10.741-4.383-13.171z" fill="#a6aaed"/><path d="m219.073 242.031c-7.879 15.719-13.78 27.492-13.838 27.607-10.501 20.958-40.825 27.019-67.73 13.538-26.906-13.481-40.204-41.399-29.703-62.357.185-.37 2.313-4.617 5.62-11.217-12.772 25.492-23.196 46.298-23.681 47.265-14.017 27.975 3.734 65.242 39.649 83.237 35.914 17.995 76.392 9.904 90.409-18.071.125-.25 20.898-41.692 40.1-80.001h-40.826z" fill="#dda86a"/><path d="m447.806 47.769 8.261 23.23c.354.995 1.054 1.783 1.938 2.181l20.639 9.299c2.916 1.314 2.916 5.96 0 7.273l-20.639 9.299c-.884.398-1.584 1.186-1.938 2.181l-8.261 23.23c-1.167 3.282-5.295 3.282-6.462 0l-8.261-23.23c-.354-.995-1.054-1.783-1.938-2.181l-20.639-9.299c-2.916-1.314-2.916-5.959 0-7.273l20.639-9.299c.884-.398 1.584-1.186 1.938-2.181l8.261-23.23c1.167-3.282 5.295-3.282 6.462 0z" fill="#faf1a9"/><path d="m220.32 32.147 6.128 17.231c.262.738.782 1.322 1.437 1.618l15.31 6.898c2.163.974 2.163 4.42 0 5.395l-15.31 6.897c-.656.295-1.175.88-1.437 1.618l-6.128 17.232c-.866 2.434-3.927 2.434-4.793 0l-6.128-17.232c-.262-.738-.782-1.322-1.437-1.618l-15.31-6.897c-2.163-.975-2.163-4.421 0-5.395l15.31-6.898c.656-.295 1.175-.88 1.437-1.618l6.128-17.231c.865-2.435 3.927-2.435 4.793 0z" fill="#faf1a9"/><g fill="#f6e06e"><ellipse cx="305.985" cy="34.651" rx="18.039" ry="18.039" transform="matrix(.189 -.982 .982 .189 214.095 328.563)"/><path d="m147.116 11.485c0 4.298-3.484 7.782-7.782 7.782s-7.782-3.484-7.782-7.782 3.484-7.782 7.782-7.782 7.782 3.484 7.782 7.782z"/></g></g><g><g fill="#3c122c"><path d="m508.36 406.836-1.011-1.592c-6.889-10.852-21.326-14.077-32.179-7.186l-18.404 11.685-56.761-89.401c21.005-24.523 26.51-57.007 11.16-81.183-.402-.632-86.129-135.7-86.129-135.7-1.43-2.252-3.695-3.844-6.299-4.426-2.607-.582-5.332-.106-7.583 1.325l-67.274 42.713-77.634-38.899c-2.385-1.196-5.147-1.393-7.678-.552s-4.624 2.654-5.819 5.038l-72 143.703c-8.199 16.363-7.84 35.609 1.012 54.191 4.641 9.743 11.366 18.687 19.687 26.384l-47.341 94.484-19.491-9.766c-11.494-5.758-25.53-1.093-31.288 10.4l-.846 1.687c-2.79 5.568-3.245 11.889-1.28 17.798 1.964 5.91 6.112 10.701 11.68 13.49l89.409 44.799c3.342 1.675 6.899 2.468 10.406 2.468 8.551 0 16.799-4.717 20.884-12.869l.844-1.685c2.79-5.567 3.245-11.888 1.28-17.798-1.964-5.91-6.112-10.701-11.68-13.49l-19.49-9.766 47.339-94.479c5.555 1.024 11.121 1.544 16.617 1.544 5.526 0 10.983-.524 16.286-1.584 20.183-4.034 35.814-15.268 44.014-31.631.081-.162 8.789-17.534 20.12-40.141l25.243 39.756c11.512 18.132 32.243 27.638 55.026 27.638 7.596 0 15.419-1.072 23.206-3.219l56.763 89.403-18.404 11.685c-10.852 6.89-14.076 21.326-7.185 32.18l1.01 1.591c3.338 5.258 8.523 8.9 14.601 10.258 1.705.381 3.422.569 5.127.569 4.375 0 8.668-1.238 12.451-3.64l84.425-53.603c5.258-3.338 8.9-8.523 10.258-14.601 1.357-6.078.266-12.321-3.072-17.578zm-194.917-284.107c9.823 15.477 31.314 49.337 49.656 78.236h-71.366c5.525-11.023 9.081-18.118 9.081-18.118 1.195-2.385 1.394-5.147.553-7.678-.841-2.532-2.654-4.625-5.039-5.82l-31.475-15.771zm-147.217 3.93 112.099 56.167c-4.745 9.466-12.747 25.432-21.616 43.124h-140.229zm-49.784 358.074-.844 1.685c-.791 1.578-2.716 2.219-4.295 1.428l-89.409-44.799c-1.577-.791-2.218-2.717-1.428-4.294l.846-1.687c.791-1.577 2.717-2.218 4.295-1.428l89.409 44.799c1.576.791 2.217 2.717 1.426 4.296zm-29.891-41.056-14.462-7.246 45.713-91.233c2.294 1.38 4.656 2.681 7.083 3.897 2.433 1.219 4.898 2.329 7.383 3.342zm124.256-126.15c-11.511 22.972-46.013 29.066-76.912 13.585-15.378-7.706-27.443-19.499-33.974-33.209-6.126-12.86-6.548-25.834-1.188-36.531l7.669-15.306h140.225c-17.884 35.677-35.704 71.229-35.82 71.461zm80.328-2.155-31.713-49.946c7.543-15.05 15.405-30.733 22.228-44.346h91.984c.717 0 1.416-.078 2.091-.221 10.717 16.885 18.378 28.955 18.46 29.085 13.773 21.692 1.863 54.016-26.548 72.054-28.412 18.039-62.73 15.065-76.502-6.626zm80.282 27.648c2.361-1.242 4.7-2.58 7.002-4.041 2.307-1.465 4.525-3.01 6.658-4.622l54.707 86.166-13.655 8.67zm120.383 77.01c-.108.483-.434 1.385-1.408 2.004l-84.426 53.603c-.972.618-1.929.529-2.412.421s-1.386-.434-2.005-1.409l-1.01-1.591c-.946-1.49-.503-3.471.986-4.417l84.425-53.602c.614-.39 1.221-.498 1.707-.498.284 0 .527.037.706.077.483.107 1.386.434 2.004 1.407l1.012 1.593c.618.973.529 1.928.421 2.412z"/><path d="m177.907 300.059c-5.007 0-9.066 4.059-9.066 9.066s4.059 9.066 9.066 9.066 9.066-4.059 9.066-9.066-4.059-9.066-9.066-9.066z"/><path d="m143.456 268.328c-5.007 0-9.066 4.059-9.066 9.066s4.059 9.066 9.066 9.066 9.066-4.059 9.066-9.066-4.059-9.066-9.066-9.066z"/><path d="m318.884 263.795c-4.757 0-8.613 3.856-8.613 8.612 0 4.757 3.856 8.613 8.613 8.613s8.613-3.856 8.613-8.613c-.001-4.756-3.857-8.612-8.613-8.612z"/></g><path d="m160.19 203.156c-1.512 0-3.046-.342-4.49-1.064-4.968-2.484-6.982-8.525-4.498-13.493l14.732-29.464c2.483-4.968 8.526-6.982 13.493-4.498 4.968 2.484 6.982 8.525 4.498 13.493l-14.732 29.464c-1.761 3.524-5.314 5.562-9.003 5.562z" fill="#fff"/></g></g></svg>