<?xml version="1.0" encoding="iso-8859-1"?>
<!-- Generator: Adobe Illustrator 19.0.0, SVG Export Plug-In . SVG Version: 6.00 Build 0)  -->
<svg version="1.1" id="Capa_1" xmlns="http://www.w3.org/2000/svg" xmlns:xlink="http://www.w3.org/1999/xlink" x="0px" y="0px"
	 viewBox="0 0 512 512" style="enable-background:new 0 0 512 512;" xml:space="preserve">
<rect x="319.821" y="89.533" transform="matrix(-0.9397 -0.342 0.342 -0.9397 580.8726 426.0186)" style="fill:#394049;" width="16.344" height="144.535"/>
<polygon style="opacity:0.2;enable-background:new    ;" points="319.284,161.811 295.584,226.927 310.943,232.517 336.677,161.811 
	"/>
<path style="opacity:0.2;enable-background:new    ;" d="M345.019,91.105l-14.51,39.868c4.086,1.695,8.241,3.317,12.465,4.854
	c0.933,0.34,1.865,0.666,2.799,0.995l14.605-40.127L345.019,91.105z"/>
<path style="fill:#F3C74F;" d="M381.774,0.252L235.134,36.919c-4.088,1.022-5.676,5.969-2.967,9.197
	c25.696,30.618,64.146,57.521,110.807,74.504c46.66,16.984,93.408,21.09,132.773,14.152c4.15-0.731,6.114-5.542,3.639-8.952
	L390.621,3.471C388.606,0.693,385.104-0.581,381.774,0.252z"/>
<g>
	<path style="fill:#0081C6;" d="M349.372,81.861c-12.574-4.576-26.477,1.907-31.055,14.481c-1.654,4.545-1.845,9.258-0.844,13.647
		c8.187,3.868,16.697,7.427,25.5,10.63c3.92,1.427,7.842,2.756,11.76,4.002c4.05-2.759,7.316-6.749,9.119-11.706
		C368.429,100.341,361.946,86.437,349.372,81.861z M333.277,12.378l-43.595,10.9c-1.556,11.086,4.765,22.13,15.707,26.112
		c12.574,4.576,26.477-1.907,31.055-14.481C339.304,27.051,337.844,18.673,333.277,12.378z M411.561,32.334
		c-10.408-0.605-20.416,5.596-24.165,15.896c-4.576,12.574,1.907,26.477,14.481,31.055c12.574,4.576,26.477-1.907,31.055-14.481
		c0.255-0.702,0.464-1.409,0.652-2.117L411.561,32.334z M479.385,125.818l-12.857-17.722c-0.323-0.133-0.632-0.287-0.963-0.406
		c-12.574-4.576-26.477,1.907-31.055,14.481c-1.926,5.292-1.873,10.813-0.251,15.782c14.462,0.205,28.385-0.873,41.488-3.182
		C479.896,134.039,481.86,129.229,479.385,125.818z"/>
	<path style="fill:#0081C6;" d="M141.514,259.128l-44.775-141.37L12.504,91.612c-4.886-1.517-7.617-6.706-6.101-11.593l6.873-22.146
		c1.517-4.886,6.706-7.617,11.593-6.101l94.646,29.377c6.522,2.024,11.64,7.113,13.702,13.623l48.067,151.762L141.514,259.128z"/>
</g>
<polygon style="opacity:0.1;enable-background:new    ;" points="154.451,161.811 110.693,161.811 141.514,259.128 181.285,246.532 
	"/>
<path style="fill:#B67749;" d="M461.2,181.002H52.412c-7.999,0-15.379,4.466-18.936,11.629
	c-16.56,33.345-25.88,70.919-25.88,110.675C7.596,440.942,119.171,512,256.805,512s249.21-71.059,249.21-208.693
	c0-39.755-9.319-77.33-25.879-110.674C476.578,185.467,469.198,181.002,461.2,181.002z"/>
<g>
	<path style="fill:#394049;" d="M170.335,288.587c-4.514,0-8.172-3.658-8.172-8.172v-4.058c0-4.514,3.658-8.172,8.172-8.172
		s8.172,3.658,8.172,8.172v4.058C178.507,284.928,174.849,288.587,170.335,288.587z"/>
	<path style="fill:#394049;" d="M343.276,288.587c-4.513,0-8.172-3.658-8.172-8.172v-4.058c0-4.514,3.659-8.172,8.172-8.172
		c4.514,0,8.172,3.658,8.172,8.172v4.058C351.448,284.928,347.79,288.587,343.276,288.587z"/>
	<path style="fill:#394049;" d="M271.326,309.433c-5.518,0-10.583-1.98-14.52-5.266c-3.937,3.286-9.002,5.266-14.52,5.266
		c-12.512,0-22.692-10.18-22.692-22.692c0-4.514,3.658-8.172,8.172-8.172s8.172,3.658,8.172,8.172c0,3.501,2.847,6.348,6.348,6.348
		c3.501,0,6.348-2.847,6.348-6.348c0-4.514,3.658-8.172,8.172-8.172c4.514,0,8.172,3.658,8.172,8.172
		c0,3.501,2.847,6.348,6.348,6.348s6.348-2.847,6.348-6.348c0-4.514,3.658-8.172,8.172-8.172s8.172,3.658,8.172,8.172
		C294.018,299.254,283.838,309.433,271.326,309.433z"/>
</g>
<g>
	<path style="fill:#F0B0B7;" d="M182.71,317.721h-24.747c-4.514,0-8.172-3.658-8.172-8.172s3.658-8.172,8.172-8.172h24.747
		c4.514,0,8.172,3.658,8.172,8.172S187.223,317.721,182.71,317.721z"/>
	<path style="fill:#F0B0B7;" d="M355.65,317.721h-24.748c-4.514,0-8.172-3.658-8.172-8.172s3.658-8.172,8.172-8.172h24.748
		c4.514,0,8.172,3.658,8.172,8.172S360.163,317.721,355.65,317.721z"/>
</g>
<g style="opacity:0.2;">
	<path d="M64.287,305.548c-3.422,0-6.61-2.165-7.751-5.591c-4.752-14.257-2.316-33.167-0.36-48.363
		c0.575-4.476,4.684-7.673,9.152-7.091c4.476,0.575,7.642,4.642,7.065,9.118l-0.008,0.061c-1.744,13.543-3.915,30.397-0.344,41.108
		c1.427,4.281-0.887,8.91-5.169,10.336C66.015,305.412,65.143,305.548,64.287,305.548z"/>
	<path d="M131.696,420.555c-3.422,0-6.61-2.165-7.751-5.59c-4.752-14.257-2.316-33.169-0.36-48.365
		c0.575-4.476,4.683-7.66,9.152-7.091c4.476,0.576,7.642,4.644,7.065,9.12l-0.008,0.059c-1.744,13.544-3.915,30.398-0.344,41.108
		c1.427,4.282-0.886,8.911-5.168,10.337C133.424,420.419,132.553,420.555,131.696,420.555z"/>
	<path d="M453.102,278.606c-0.856,0-1.728-0.135-2.585-0.422c-4.282-1.427-6.596-6.056-5.169-10.336
		c3.571-10.716,1.399-27.578-0.346-41.125l16.205-2.131l-8.106,1.044l8.11-1.001c1.959,15.201,4.397,34.119-0.357,48.38
		C459.711,276.44,456.523,278.606,453.102,278.606z"/>
	<path d="M400.613,437.281c-0.856,0-1.728-0.136-2.586-0.422c-4.282-1.427-6.595-6.056-5.168-10.337
		c3.572-10.714,1.399-27.577-0.346-41.125l16.205-2.13l-8.104,1.044l8.11-1.002c1.959,15.201,4.397,34.121-0.357,48.383
		C407.223,435.116,404.035,437.281,400.613,437.281z"/>
	<path d="M269.076,477.953c-0.856,0-1.728-0.136-2.586-0.422c-4.282-1.427-6.595-6.056-5.168-10.337
		c3.57-10.709,1.399-27.565-0.344-41.108l8.098-1.104l8.106-1.044l-8.106,1.044l8.112-0.984c1.957,15.196,4.392,34.108-0.36,48.365
		C275.687,475.787,272.498,477.953,269.076,477.953z"/>
</g>
<g>
</g>
<g>
</g>
<g>
</g>
<g>
</g>
<g>
</g>
<g>
</g>
<g>
</g>
<g>
</g>
<g>
</g>
<g>
</g>
<g>
</g>
<g>
</g>
<g>
</g>
<g>
</g>
<g>
</g>
</svg>
