<svg id="Capa_1" enable-background="new 0 0 512.012 512.012" height="512" viewBox="0 0 512.012 512.012" width="512" xmlns="http://www.w3.org/2000/svg"><g><path d="m431.404 209.321c4.567-24.397-15.214-42.652-39.568-36.47-3.738.949-7.244-1.979-7.168-5.835.428-21.739-18.625-35.8-40.609-30.031-3.665.962-7.34-1.677-7.273-5.465.376-21.121-17.622-35.105-39.062-30.348-3.675.815-7.058-2.218-6.871-5.978 1.173-23.58-20.473-38.304-43.854-30.119-3.642 1.275-7.603-1.202-7.798-5.056-.387-7.663-3.223-14.807-8.629-20.212-10.661-10.661-28.081-11.328-42.906-2.911-3.525 2.001-7.945-.098-8.572-4.103-.982-6.276-3.707-12.048-8.25-16.591-17.068-17.068-48.828-7.627-61.848 16.273-1.411 2.59-4.541 3.797-7.246 2.622-13.5-5.867-31.533-1.835-44.551 11.182-13.017 13.018-17.049 31.052-11.182 44.553 1.175 2.704-.033 5.834-2.622 7.245-23.819 12.991-33.389 44.732-16.274 61.847 4.543 4.543 10.315 7.268 16.591 8.25 4.005.627 6.104 5.047 4.103 8.572-8.417 14.826-7.75 32.246 2.911 42.906 5.406 5.406 12.55 8.242 20.212 8.629 3.853.194 6.33 4.155 5.054 7.795-8.213 23.422 6.57 45.019 30.12 43.855 3.76-.186 6.795 3.196 5.979 6.871-4.764 21.449 9.232 39.427 30.332 39.063 3.796-.066 6.44 3.614 5.476 7.286-5.774 22.005 8.323 41.017 30.035 40.595 3.856-.075 6.784 3.431 5.835 7.169-6.191 24.369 12.075 44.136 36.471 39.569 3.733-.699 7.061 2.361 6.778 6.147-.701 9.376 2.084 18.355 8.565 24.836 12.743 12.743 35.337 11.211 51.348-3.126 3.031-2.714 7.734-1.616 9.291 2.143 8.722 21.053 38.835 24.955 59.681 4.108 6.288-6.288 10.474-13.746 12.464-21.298.619-2.35 2.693-4.074 5.12-4.202 30.856-1.631 64.895-35.635 66.524-66.524.128-2.427 1.853-4.501 4.203-5.121 7.553-1.991 15.01-6.177 21.298-12.464 20.888-20.888 16.901-50.957-4.107-59.677-3.758-1.56-4.859-6.261-2.143-9.29 14.412-16.073 15.804-38.675 3.125-51.354-6.481-6.481-15.46-9.266-24.836-8.565-3.786.285-6.846-3.044-6.147-6.776z" fill="#e06e7e"/><path d="m432.637 334.989c-41.726-26.358-111.984-54.522-184.04-54.522-48.807 0-91.815 13.472-125.866 39.18 5.242 4.032 11.991 6.352 19.693 6.219 3.796-.066 6.44 3.614 5.476 7.286-5.774 22.005 8.323 41.017 30.035 40.595 3.856-.075 6.784 3.431 5.835 7.169-6.191 24.369 12.075 44.136 36.471 39.569 3.733-.699 7.061 2.361 6.778 6.147-.701 9.376 2.084 18.355 8.565 24.836 12.743 12.743 35.337 11.211 51.348-3.126 3.031-2.714 7.734-1.616 9.291 2.143 8.722 21.053 38.835 24.956 59.682 4.108 6.288-6.288 10.474-13.746 12.464-21.298.619-2.35 2.693-4.074 5.121-4.202 30.856-1.631 64.895-35.635 66.524-66.524.128-2.427 1.853-4.501 4.203-5.121 2.626-.692 5.237-1.667 7.795-2.886-4.86-7.827-11.44-14.56-19.375-19.573z" fill="#d7495d"/><path d="m424.318 407.12c11.817-14.775 8.293-36.663-7.702-46.767-64.694-40.867-207.992-86.635-291.547-3.08-38.395 38.395-42.819 90.87-35.176 131.872 3.349 17.965 27.774 21.039 35.759 4.601 20.785-42.788 61.993-85.232 105.53-41.696 50.864 50.864 135.743 26.83 193.136-44.93z" fill="#7fd29b"/><path d="m125.069 357.272c-38.395 38.395-42.819 90.87-35.176 131.872 3.349 17.965 27.774 21.04 35.759 4.601 19.061-39.24 55.301-78.179 94.76-50.788-36.886-37.017-32.24-103.392-10.223-129.143-31.173 5.678-60.699 19.038-85.12 43.458z" fill="#5ec581"/><path d="m483.401 171.397c11.923 11.923 14.956 28.22.573 42.603s-43.825 24.495-55.748 12.572-1.811-41.365 12.572-55.748c14.383-14.382 30.68-11.349 42.603.573z" fill="#d7495d"/><path d="m461.791 88.578c0 16.861-9.379 30.53-29.72 30.53s-48.309-13.669-48.309-30.53 27.969-30.53 48.309-30.53 29.72 13.669 29.72 30.53z" fill="#d7495d"/><g><g><ellipse cx="143.482" cy="245.196" fill="#eda1ab" rx="29.387" ry="23.403" transform="matrix(.707 -.707 .707 .707 -131.355 173.273)"/><path d="m235.336 153.342c9.139 9.139 25.852 7.244 37.328-4.232s13.371-28.189 4.232-37.328-25.852-7.245-37.328 4.232c-11.476 11.476-13.371 28.188-4.232 37.328z" fill="#eda1ab"/><path d="m203.838 159.411c-10.354-10.354-18.828-3.826-28.081 5.427s-15.781 17.727-5.427 28.081 26.248 11.246 35.501 1.993c9.254-9.253 8.361-25.147-1.993-35.501z" fill="#565e75"/></g></g><path d="m219.098 113.098 8.485 8.484c2.928 2.928 7.677 2.929 10.606-.001 2.929-2.929 2.929-7.678-.001-10.606l-8.485-8.484c-2.928-2.927-7.677-2.93-10.606.001-2.929 2.928-2.929 7.677.001 10.606zm-9.957 41.009c-8.526-8.526-16.72-8.22-22.088-6.464-5.806 1.899-10.835 6.127-16.6 11.891-5.764 5.765-9.992 10.793-11.891 16.6-1.757 5.371-2.062 13.563 6.464 22.089 13.081 13.079 33.784 14.317 46.108 1.994 12.161-12.162 11.268-32.847-1.993-46.108.001-.002 0-.002 0-.002zm-8.613 35.501c-6.313 6.314-17.481 5.42-24.894-1.994-3.802-3.801-3.184-5.689-2.814-6.818 1.034-3.162 4.746-7.161 8.24-10.655 6.261-6.26 9.704-8.504 12.28-8.504 1.945 0 3.398 1.28 5.194 3.076 7.414 7.414 8.308 18.582 1.994 24.895zm231.543-63c22.61 0 37.22-14.928 37.22-38.03 0-23.103-14.609-38.03-37.22-38.03-22.218 0-55.809 15.168-55.809 38.03s33.591 38.03 55.809 38.03zm0-61.06c8.299 0 22.22 2.992 22.22 23.03s-13.921 23.03-22.22 23.03c-18.689 0-40.809-12.483-40.809-23.03s22.12-23.03 40.809-23.03zm-196.856 306.328c-4.138.182-7.346 3.684-7.164 7.822.183 4.139 3.69 7.367 7.822 7.164 13.477-.589 34.975 3.617 50.029 9.788 3.823 1.569 8.21-.254 9.784-4.095 1.571-3.832-.262-8.213-4.095-9.784-17.068-6.997-40.772-11.57-56.376-10.895zm153.063-69.018c5.102-3.847 21.06-22.65 26.804-34.518 1.805-3.728.245-8.214-3.483-10.019-3.734-1.807-8.215-.243-10.018 3.483-4.807 9.933-19.42 26.879-22.333 29.076-3.308 2.494-3.967 7.197-1.473 10.504 2.501 3.318 7.207 3.959 10.503 1.474zm-53.704-108.185c-3.666-1.933-8.201-.526-10.132 3.138-2.193 4.161-6.12 9.482-10.839 15.11-9.708-10.177-25.82-17.947-28.843-18.819-3.979-1.15-8.155 1.143-9.303 5.122s1.13 8.132 5.11 9.279c3.962 1.273 17.243 9.185 23.006 15.633-6.925 7.323-14.153 14.231-19.665 18.885-3.165 2.673-3.564 7.404-.892 10.569 2.663 3.154 7.393 3.572 10.569.892 6.016-5.08 13.868-12.562 21.414-20.588 5.71 3.284 16.229 11.334 19.915 18.348 1.92 3.653 6.448 5.082 10.129 3.148 3.666-1.928 5.076-6.462 3.148-10.129-4.241-8.066-14.293-17.241-23.06-22.755 5.348-6.399 9.891-12.602 12.579-17.701 1.933-3.664.528-8.2-3.136-10.132zm-200.004-104.051c-1.881-3.692-6.398-5.157-10.087-3.28-14.457 7.362-30.915 27.37-34.333 35.405-1.621 3.812.154 8.216 3.966 9.837 3.82 1.624 8.218-.161 9.837-3.966 2.203-5.178 16.141-22.207 27.337-27.909 3.691-1.88 5.159-6.396 3.28-10.087zm-10.553 117.555c-2.93-2.928-7.678-2.928-10.607 0-2.929 2.93-2.929 7.678 0 10.607l8.485 8.485c2.931 2.929 7.678 2.928 10.607 0 2.929-2.93 2.929-7.678 0-10.607zm364.687-42.083c-17.759-17.757-42.717-17.746-60.643 8.486-8.994-8.659-22.126-12.324-35.904-9.495-.724-24.809-22.571-41.303-47.898-35.855-.941-23.862-21.43-39.992-45.86-35.829.006-26.422-24.321-44.455-51.884-36.056-.24-2.279-.662-4.512-1.262-6.662-1.112-3.99-5.25-6.32-9.239-5.21-3.99 1.113-6.322 5.25-5.21 9.239.503 1.803.809 3.716.908 5.687.453 8.986 9.531 14.642 17.765 11.757 18.066-6.324 34.811 4.115 33.886 22.668-.425 8.582 7.363 15.58 15.987 13.672 16.315-3.625 30.233 6.276 29.938 22.892-.157 8.898 8.343 15.039 16.675 12.854 16.872-4.431 31.543 5.599 31.208 22.627-.175 8.841 7.998 15.417 16.511 13.253 11.108-2.818 21.246.544 26.769 8.58-14.661 35.577 4.026 59.77 40.887 47.422 4.7 10.205 1.848 24.286-7.658 34.888-6.179 6.892-3.647 17.696 4.852 21.224 6.712 2.786 11.244 8.528 12.761 16.168 3.59 18.085-11.299 37.132-28.987 41.794-5.55 1.463-9.48 6.276-9.78 11.979-.055 1.036-.169 2.091-.314 3.154-3.003-4.499-6.932-8.374-11.588-11.316-31.065-19.624-84.648-42.883-141.869-49.311-47.99-5.393-90.249 1.89-124.479 21.127-2.148-4.526-6.657-7.552-11.978-7.461-16.458.322-26.534-13.495-22.881-29.938 1.891-8.524-4.993-16.426-13.671-15.987-18.7.943-28.943-16.002-22.673-33.882 2.927-8.345-2.869-17.319-11.753-17.768-19.841-1.002-27.663-21.523-16.979-40.343 4.583-8.074-.285-18.247-9.465-19.685-12.382-1.936-20.712-12.61-18.629-27.066 1.709-11.864 9.657-22.99 20.743-29.037 6.092-3.323 8.632-10.554 5.908-16.818-4.754-10.939-.804-25.85 9.607-36.261 10.409-10.41 25.321-14.357 36.26-9.607 6.267 2.722 13.5.181 16.819-5.913 6.036-11.08 17.15-19.025 29.004-20.735 14.586-2.107 25.178 6.351 27.099 18.624 1.435 9.177 11.605 14.052 19.684 9.467 6.185-3.512 13.049-5.185 19.336-4.702 4.14.307 7.733-2.778 8.048-6.909.314-4.13-2.779-7.733-6.909-8.048-8.625-.653-17.496 1.236-25.786 5.484-4.086-18.676-21.305-31.982-43.612-28.762-15.961 2.302-30.884 12.627-39.293 27.089-16.455-6.284-36.831-1.021-51.256 13.405-14.429 14.424-19.692 34.8-13.408 51.255-14.466 8.42-24.793 23.356-27.093 39.326-3.228 22.406 10.207 39.518 28.766 43.577-14.377 28.062.084 57.551 28.097 60.459-8.343 27.339 9.41 51.882 36.06 51.882-4.156 24.37 11.896 44.913 35.826 45.86-.118.549-.21 1.098-.308 1.648-30.335 21.635-49.331 50.184-56.954 85.671-4.689 21.827-4.814 45.985-.364 69.862 4.662 25.007 38.7 29.514 49.879 6.504 15.223-31.338 35.936-52.002 55.41-55.277 12.765-2.147 25.568 3.106 38.069 15.608 38.09 38.088 92.323 36.334 139.78 10.093 3.624-2.005 4.938-6.568 2.934-10.193-2.004-3.624-6.567-4.937-10.193-2.934-46.103 25.494-91.679 22.663-121.913-7.573-43.845-43.84-90.609-11.801-117.579 43.722-4.837 9.958-19.619 8.146-21.641-2.697-8.489-45.546.282-92.372 33.106-125.194 44.172-44.174 104.157-47.748 146.705-42.969 54.697 6.143 105.876 28.352 135.532 47.086 12.468 7.875 14.694 24.686 5.851 35.742-9.828 12.288-20.637 23.315-32.125 32.773-3.198 2.633-3.656 7.359-1.023 10.557 2.632 3.199 7.36 3.654 10.557 1.023 12.288-10.116 23.831-21.887 34.307-34.984 4.646-5.809 7.495-12.77 8.353-20.029 5.119-9.113 8.173-18.535 8.883-27.432 24.693-7.207 43.659-33.345 38.593-58.863-2.334-11.756-9.452-21.18-19.677-26.177 12.24-14.825 15.401-34.348 8.664-49.303 30.769-17.517 32.987-44.629 13.711-63.907zm-10.034 42.602c-6.252 6.253-15.993 11.696-25.423 14.207-8.941 2.381-16.313 1.771-19.718-1.635-3.405-3.404-4.017-10.775-1.635-19.718 2.511-9.43 7.954-19.171 14.207-25.423 9.881-9.884 21.244-10.18 31.995.573 14.17 14.17 6.442 26.129.574 31.996z"/></g></svg>