<svg id="Layer_1" enable-background="new 0 0 512 512" height="512" viewBox="0 0 512 512" width="512" xmlns="http://www.w3.org/2000/svg"><g><g><path d="m439.397 165.292h-366.794v-127.792c0-16.569 13.431-30 30-30h306.793c16.569 0 30 13.431 30 30v127.792z" fill="#efc89c"/><path d="m409.397 7.5h-30c16.569 0 30 13.431 30 30v127.792h30v-127.792c0-16.569-13.432-30-30-30z" fill="#ebb780"/><path d="m20.512 209.297h470.976v265.141h-470.976z" fill="#ecf5ff"/><path d="m461.488 209.297h30v265.141h-30z" fill="#dceafc"/><path d="m494.5 209.297h-477c-5.523 0-10-4.477-10-10v-24.004c0-5.523 4.477-10 10-10h477c5.523 0 10 4.477 10 10v24.004c0 5.523-4.477 10-10 10z" fill="#4f6d8f"/><path d="m494.5 165.292h-30c5.523 0 10 4.477 10 10v24.004c0 5.523-4.477 10-10 10h30c5.523 0 10-4.477 10-10v-24.004c0-5.523-4.477-10-10-10z" fill="#455e7e"/><g><g><path d="m202.198 105.292c0-29.714 24.088-53.802 53.802-53.802 29.714 0 53.802 24.088 53.802 53.802z" fill="#ecf5ff"/><path d="m256 51.49c-5.208 0-10.237.755-15 2.135 22.412 6.496 38.802 27.161 38.802 51.667h30c0-29.714-24.088-53.802-53.802-53.802z" fill="#dceafc"/><path d="m199.207 135.292h113.585c8.284 0 15-6.716 15-15 0-8.284-6.716-15-15-15h-113.585c-8.284 0-15 6.716-15 15 0 8.285 6.716 15 15 15z" fill="#cbe0fd"/><path d="m312.792 105.292h-30c8.284 0 15 6.716 15 15 0 8.284-6.716 15-15 15h30c8.284 0 15-6.716 15-15 0-8.284-6.715-15-15-15z" fill="#bdd8fc"/></g></g><g><g><path d="m75.551 359.953h125.41v114.484h-125.41z" fill="#ce9775"/><path d="m170.961 359.953h30v114.484h-30z" fill="#c6855b"/></g><path d="m190.961 292.322h-105.41c-5.523 0-10 4.477-10 10v57.631h125.41v-57.631c0-5.523-4.477-10-10-10z" fill="#bdd8fc"/><path d="m190.961 292.322h-30c5.523 0 10 4.477 10 10v57.631h30v-57.631c0-5.523-4.477-10-10-10z" fill="#9dc7fb"/></g><path d="m17.5 474.437h477c5.523 0 10 4.487 10 10.021v10.021c0 5.534-4.477 10.021-10 10.021h-477c-5.523 0-10-4.487-10-10.021v-10.021c0-5.534 4.477-10.021 10-10.021z" fill="#bee49d"/><path d="m494.5 474.437h-30c5.523 0 10 4.487 10 10.021v10.021c0 5.534-4.477 10.021-10 10.021h30c5.523 0 10-4.487 10-10.021v-10.021c0-5.534-4.477-10.021-10-10.021z" fill="#a3d8a4"/></g><path d="m512 199.297v-24.005c0-9.649-7.851-17.5-17.5-17.5h-47.604v-120.292c0-20.678-16.822-37.5-37.5-37.5h-306.792c-20.678 0-37.5 16.822-37.5 37.5v120.292h-47.604c-9.649 0-17.5 7.851-17.5 17.5v24.005c0 8.096 5.534 14.905 13.012 16.895v251.351c-7.478 1.992-13.012 8.81-13.012 16.915v10.021c0 9.661 7.851 17.521 17.5 17.521h477c9.649 0 17.5-7.86 17.5-17.521v-10.021c0-8.105-5.534-14.923-13.012-16.915v-251.351c7.478-1.99 13.012-8.799 13.012-16.895zm-431.896-161.797c0-12.407 10.094-22.5 22.5-22.5h306.793c12.406 0 22.5 10.093 22.5 22.5v120.292h-351.793zm416.896 456.979c0 1.39-1.121 2.521-2.5 2.521h-477c-1.379 0-2.5-1.131-2.5-2.521v-10.021c0-1.39 1.121-2.521 2.5-2.521h477c1.379 0 2.5 1.131 2.5 2.521zm-306.039-209.657h-105.41c-9.649 0-17.5 7.851-17.5 17.5v84.873c0 4.142 3.357 7.5 7.5 7.5s7.5-3.358 7.5-7.5v-19.742h110.41v99.484h-110.41v-44.742c0-4.142-3.357-7.5-7.5-7.5s-7.5 3.358-7.5 7.5v44.742h-40.039v-250.14h220.488v250.14h-40.039v-164.615c0-9.649-7.851-17.5-17.5-17.5zm2.5 17.5v50.131h-110.41v-50.131c0-1.378 1.121-2.5 2.5-2.5h105.41c1.379 0 2.5 1.122 2.5 2.5zm100.039 164.615v-30.077h28.215c1.166 0 2.115.948 2.115 2.114v27.962h-30.33zm130.158 0v-27.962c0-1.166.948-2.114 2.114-2.114h28.216v30.077h-30.33zm73.342-267.64c0 1.378-1.121 2.5-2.5 2.5h-60.026c-4.143 0-7.5 3.358-7.5 7.5s3.357 7.5 7.5 7.5h49.515v250.14h-15v-83.982c0-4.142-3.357-7.5-7.5-7.5s-7.5 3.358-7.5 7.5v38.906h-28.216c-9.437 0-17.114 7.677-17.114 17.114v27.962h-27.414v-80.928h35.613c4.143 0 7.5-3.358 7.5-7.5s-3.357-7.5-7.5-7.5h-86.228c-4.143 0-7.5 3.358-7.5 7.5s3.357 7.5 7.5 7.5h35.614v80.928h-27.414v-27.962c0-9.437-7.678-17.114-17.115-17.114h-28.215v-38.906c0-4.142-3.357-7.5-7.5-7.5s-7.5 3.358-7.5 7.5v83.982h-15v-250.14h135.974c4.143 0 7.5-3.358 7.5-7.5s-3.357-7.5-7.5-7.5h-381.974c-1.379 0-2.5-1.122-2.5-2.5v-24.005c0-1.378 1.121-2.5 2.5-2.5h477c1.379 0 2.5 1.122 2.5 2.5zm-391.449 226.167c4.143 0 7.5-3.358 7.5-7.5v-20.523c0-4.142-3.357-7.5-7.5-7.5s-7.5 3.358-7.5 7.5v20.523c0 4.142 3.357 7.5 7.5 7.5zm211.324-327.294c-3.255-27.992-25.434-50.278-53.375-53.704v-6.966c0-4.142-3.357-7.5-7.5-7.5s-7.5 3.358-7.5 7.5v6.966c-27.94 3.426-50.119 25.712-53.375 53.704-10.464 1.926-18.418 11.11-18.418 22.123 0 12.406 10.094 22.5 22.5 22.5h113.586c12.406 0 22.5-10.093 22.5-22.5 0-11.014-7.955-20.197-18.418-22.123zm-60.875-39.179c22.979 0 42.101 16.824 45.694 38.801h-91.389c3.594-21.978 22.716-38.801 45.695-38.801zm56.793 68.801h-113.586c-4.136 0-7.5-3.364-7.5-7.5s3.364-7.5 7.5-7.5h113.586c4.136 0 7.5 3.365 7.5 7.5 0 4.136-3.364 7.5-7.5 7.5z" fill="#1e1d21"/></g></svg>