<?xml version="1.0" encoding="iso-8859-1"?>
<!-- Generator: Adobe Illustrator 19.0.0, SVG Export Plug-In . SVG Version: 6.00 Build 0)  -->
<svg version="1.1" id="Capa_1" xmlns="http://www.w3.org/2000/svg" xmlns:xlink="http://www.w3.org/1999/xlink" x="0px" y="0px"
	 viewBox="0 0 512 512" style="enable-background:new 0 0 512 512;" xml:space="preserve">
<ellipse style="fill:#E6595A;" cx="255.994" cy="195.847" rx="128.396" ry="116.746"/>
<path style="fill:#E9D286;" d="M275.293,499.436l118.158-267.362c3.203-7.248-2.104-15.397-10.029-15.397H128.578
	c-7.924,0-13.232,8.148-10.028,15.397l118.163,267.362C244.118,516.189,267.889,516.188,275.293,499.436z"/>
<path style="opacity:0.05;enable-background:new    ;" d="M256,79.102c-54.925,0-101.786,31.363-120.128,75.463
	c17.982,19.513,63.346-0.616,116.475-0.616c58.108,0,106.935,24.091,120.8-5.954C353.049,107.381,308.157,79.102,256,79.102z"/>
<path style="fill:#F0B0B7;" d="M377.09,110.103C377.09,49.295,322.876,0,256,0S134.909,49.295,134.909,110.103
	S189.123,138.037,256,138.037C322.876,138.037,377.09,170.91,377.09,110.103z"/>
<g>
	<path style="fill:#394049;" d="M189.3,267.861c-4.522,0-8.189-3.665-8.189-8.189v-3.13c0-4.523,3.666-8.189,8.189-8.189
		c4.522,0,8.189,3.665,8.189,8.189v3.13C197.489,264.195,193.823,267.861,189.3,267.861z"/>
	<path style="fill:#394049;" d="M322.699,267.861c-4.523,0-8.189-3.665-8.189-8.189v-3.13c0-4.523,3.665-8.189,8.189-8.189
		s8.189,3.665,8.189,8.189v3.13C330.887,264.195,327.222,267.861,322.699,267.861z"/>
	<path style="fill:#394049;" d="M267.2,283.941c-4.168,0-8.035-1.323-11.201-3.57c-3.165,2.248-7.031,3.57-11.201,3.57
		c-10.691,0-19.388-8.698-19.388-19.389c0-4.523,3.666-8.189,8.189-8.189s8.189,3.665,8.189,8.189c0,1.661,1.351,3.012,3.011,3.012
		c1.661,0,3.012-1.351,3.012-3.012c0-4.523,3.666-8.189,8.189-8.189c4.523,0,8.189,3.665,8.189,8.189
		c0,1.661,1.351,3.012,3.012,3.012c1.66,0,3.011-1.351,3.011-3.012c0-4.523,3.665-8.189,8.188-8.189
		c4.523,0,8.189,3.665,8.189,8.189C286.589,275.243,277.891,283.941,267.2,283.941z"/>
</g>
<g>
	<path style="fill:#E6595A;" d="M198.845,290.334h-19.088c-4.522,0-8.189-3.665-8.189-8.189c0-4.523,3.666-8.189,8.189-8.189h19.088
		c4.522,0,8.189,3.665,8.189,8.189C207.033,286.668,203.367,290.334,198.845,290.334z"/>
	<path style="fill:#E6595A;" d="M332.242,290.334h-19.088c-4.523,0-8.189-3.665-8.189-8.189c0-4.523,3.665-8.189,8.189-8.189h19.088
		c4.523,0,8.189,3.665,8.189,8.189C340.431,286.668,336.766,290.334,332.242,290.334z"/>
</g>
<path style="opacity:0.05;enable-background:new    ;" d="M338.877,355.559l-9.737,11.106l-26.877-30.656l7.819-8.918
	c2.981-3.4,2.641-8.575-0.759-11.556c-3.401-2.981-8.574-2.644-11.556,0.759l-6.395,7.293l-6.395-7.293
	c-2.982-3.4-8.155-3.741-11.556-0.759c-3.4,2.981-3.74,8.156-0.759,11.556l7.819,8.918l-24.484,27.926l-24.484-27.926l7.819-8.918
	c2.981-3.4,2.641-8.575-0.759-11.556c-3.401-2.981-8.573-2.642-11.556,0.759l-6.395,7.293l-6.395-7.293
	c-2.983-3.401-8.156-3.741-11.556-0.759c-3.401,2.981-3.74,8.156-0.759,11.556l7.819,8.918l-26.877,30.656l-9.731-11.099
	l22.141,50.095l12.074,13.772l-3.981,4.541l7.3,16.517l7.572-8.636l26.877,30.656l-16.433,18.743l7.3,16.517l20.024-22.838
	l20.028,22.844l7.3-16.517l-16.437-18.747l26.877-30.656l7.575,8.639l7.3-16.517l-3.984-4.544l12.082-13.781L338.877,355.559z
	 M193.75,379.086l26.877-30.656l24.484,27.926l-26.877,30.656L193.75,379.086z M256,450.088l-26.877-30.656L256,388.777
	l26.877,30.656L256,450.088z M293.767,407.011l-26.877-30.656l24.484-27.926l26.877,30.656L293.767,407.011z"/>
<g>
	<circle style="opacity:0.2;fill:#FFFFFF;enable-background:new    ;" cx="308.75" cy="57.876" r="8.09"/>
	<circle style="opacity:0.2;fill:#FFFFFF;enable-background:new    ;" cx="340.98" cy="81.547" r="8.09"/>
	<circle style="opacity:0.2;fill:#FFFFFF;enable-background:new    ;" cx="173.356" cy="81.547" r="8.089"/>
	<circle style="opacity:0.2;fill:#FFFFFF;enable-background:new    ;" cx="320.618" cy="107.16" r="8.09"/>
	<circle style="opacity:0.2;fill:#FFFFFF;enable-background:new    ;" cx="337.759" cy="174.175" r="8.09"/>
	<circle style="opacity:0.2;fill:#FFFFFF;enable-background:new    ;" cx="357.16" cy="192.626" r="8.09"/>
</g>
<path style="fill:#E9D286;" d="M360.889,328.729H151.11c-4.522,0-8.189-3.665-8.189-8.188c0-4.523,3.666-8.189,8.189-8.189h209.779
	c4.523,0,8.189,3.665,8.189,8.189C369.077,325.064,365.412,328.729,360.889,328.729z"/>
<path style="opacity:0.1;enable-background:new    ;" d="M360.889,328.729H151.11c-4.522,0-8.189-3.665-8.189-8.188
	c0-4.523,3.666-8.189,8.189-8.189h209.779c4.523,0,8.189,3.665,8.189,8.189C369.077,325.064,365.412,328.729,360.889,328.729z"/>
<g>
</g>
<g>
</g>
<g>
</g>
<g>
</g>
<g>
</g>
<g>
</g>
<g>
</g>
<g>
</g>
<g>
</g>
<g>
</g>
<g>
</g>
<g>
</g>
<g>
</g>
<g>
</g>
<g>
</g>
</svg>
