<?xml version="1.0" encoding="iso-8859-1"?>
<!-- Generator: Adobe Illustrator 19.0.0, SVG Export Plug-In . SVG Version: 6.00 Build 0)  -->
<svg version="1.1" id="Capa_1" xmlns="http://www.w3.org/2000/svg" xmlns:xlink="http://www.w3.org/1999/xlink" x="0px" y="0px"
	 viewBox="0 0 512.001 512.001" style="enable-background:new 0 0 512.001 512.001;" xml:space="preserve">
<path style="fill:#76C9D2;" d="M435.348,100.751H128.242c-9.952,0-17.65,8.726-16.41,18.599l47.618,379.182
	c0.966,7.695,7.509,13.468,15.266,13.468h214.16c7.756,0,14.298-5.772,15.266-13.468l47.618-379.182
	C452.998,109.476,445.3,100.751,435.348,100.751z"/>
<path style="fill:#B67749;" d="M121.217,194.084l38.233,304.448c0.966,7.695,7.509,13.468,15.264,13.468h214.16
	c7.756,0,14.298-5.772,15.266-13.468l38.233-304.448L121.217,194.084L121.217,194.084z"/>
<path style="fill:#0081C6;" d="M179.966,183.745L140.37,58.725L65.877,35.604c-4.321-1.341-6.736-5.931-5.396-10.252l6.079-19.586
	c1.341-4.321,5.932-6.736,10.252-5.396l83.7,25.978c5.768,1.791,10.294,6.29,12.118,12.048l42.507,134.209L179.966,183.745z"/>
<g>
	<path style="fill:#76C9D2;" d="M228.543,242.108l-56.503-5.825c-9.312-0.96-16.082-9.287-15.123-18.598l5.825-56.503
		c0.96-9.312,9.287-16.082,18.598-15.123l56.503,5.825c9.312,0.96,16.082,9.287,15.123,18.598l-5.825,56.503
		C246.181,236.297,237.854,243.068,228.543,242.108z"/>
	<path style="fill:#76C9D2;" d="M379.938,234.269l-56.178,8.404c-9.257,1.385-17.886-4.997-19.27-14.256l-8.404-56.178
		c-1.386-9.257,4.997-17.886,14.256-19.27l56.178-8.404c9.257-1.385,17.886,4.997,19.27,14.256l8.404,56.178
		C395.578,224.256,389.195,232.884,379.938,234.269z"/>
</g>
<g>
	<path style="opacity:0.3;fill:#FFFFFF;enable-background:new    ;" d="M228.543,242.108l-56.503-5.825
		c-9.312-0.96-16.082-9.287-15.123-18.598l5.825-56.503c0.96-9.312,9.287-16.082,18.598-15.123l56.503,5.825
		c9.312,0.96,16.082,9.287,15.123,18.598l-5.825,56.503C246.181,236.297,237.854,243.068,228.543,242.108z"/>
	<path style="opacity:0.3;fill:#FFFFFF;enable-background:new    ;" d="M379.938,234.269l-56.178,8.404
		c-9.257,1.385-17.886-4.997-19.27-14.256l-8.404-56.178c-1.386-9.257,4.997-17.886,14.256-19.27l56.178-8.404
		c9.257-1.385,17.886,4.997,19.27,14.256l8.404,56.178C395.578,224.256,389.195,232.884,379.938,234.269z"/>
</g>
<g style="opacity:0.05;">
	<path d="M179.056,213.945c-2.095,0-4.191-0.799-5.791-2.398c-3.198-3.199-3.198-8.383,0-11.581l14.221-14.221
		c3.199-3.197,8.383-3.197,11.581,0c3.198,3.199,3.198,8.383,0,11.581l-14.221,14.221
		C183.247,213.145,181.151,213.945,179.056,213.945z"/>
	<path d="M211.386,207.876c-2.095,0-4.191-0.799-5.791-2.398c-3.198-3.199-3.198-8.383,0-11.581l19.94-19.94
		c3.199-3.197,8.383-3.197,11.581,0c3.198,3.199,3.198,8.383,0,11.581l-19.94,19.94
		C215.577,207.077,213.481,207.876,211.386,207.876z"/>
</g>
<g style="opacity:0.05;">
	<path d="M335.802,194.032c-2.095,0-4.191-0.799-5.791-2.398c-3.198-3.199-3.198-8.383,0-11.581l14.221-14.221
		c3.199-3.197,8.383-3.197,11.581,0c3.198,3.199,3.198,8.383,0,11.581l-14.221,14.221
		C339.993,193.232,337.897,194.032,335.802,194.032z"/>
	<path d="M339.572,225.119c-2.095,0-4.191-0.799-5.791-2.398c-3.198-3.199-3.198-8.383,0-11.581l19.4-19.399
		c3.199-3.197,8.383-3.197,11.581,0c3.198,3.199,3.198,8.383,0,11.581l-19.4,19.4C343.763,224.319,341.667,225.119,339.572,225.119z
		"/>
</g>
<path style="fill:#0081C6;" d="M157.132,480.073l2.318,18.46c0.966,7.695,7.509,13.468,15.266,13.468h214.16
	c7.756,0,14.299-5.772,15.266-13.468l2.318-18.46H157.132z"/>
<g>
	<path style="opacity:0.1;fill:#FFFFFF;enable-background:new    ;" d="M157.803,485.423l1.646,13.109
		c0.966,7.695,7.509,13.468,15.264,13.468h115.864l127.935-127.935l22.885-182.239L157.803,485.423z"/>
	<polygon style="opacity:0.1;fill:#FFFFFF;enable-background:new    ;" points="210.202,100.751 120.732,190.22 133.583,292.553 
		325.384,100.751 	"/>
</g>
<g>
	<path style="fill:#394049;" d="M191.713,303.905c-4.523,0-8.189-3.665-8.189-8.189v-4.227c0-4.523,3.665-8.189,8.189-8.189
		c4.523,0,8.189,3.665,8.189,8.189v4.227C199.901,300.24,196.236,303.905,191.713,303.905z"/>
	<path style="fill:#394049;" d="M371.884,303.905c-4.522,0-8.189-3.665-8.189-8.189v-4.227c0-4.523,3.666-8.189,8.189-8.189
		c4.523,0,8.189,3.665,8.189,8.189v4.227C380.072,300.24,376.406,303.905,371.884,303.905z"/>
	<path style="fill:#394049;" d="M296.926,325.624c-5.767,0-11.052-2.105-15.127-5.587c-4.075,3.483-9.36,5.587-15.127,5.587
		c-12.856,0-23.315-10.459-23.315-23.315c0-4.523,3.665-8.189,8.189-8.189s8.189,3.665,8.189,8.189c0,3.827,3.113,6.938,6.938,6.938
		c3.827,0,6.938-3.113,6.938-6.938c0-4.523,3.665-8.189,8.189-8.189s8.189,3.665,8.189,8.189c0,3.827,3.113,6.938,6.938,6.938
		c3.827,0,6.938-3.113,6.938-6.938c0-4.523,3.665-8.189,8.189-8.189c4.523,0,8.189,3.665,8.189,8.189
		C320.242,315.165,309.782,325.624,296.926,325.624z"/>
</g>
<g>
	<path style="fill:#F0B0B7;" d="M204.604,334.257h-25.781c-4.523,0-8.189-3.666-8.189-8.189c0-4.523,3.665-8.189,8.189-8.189h25.781
		c4.523,0,8.189,3.665,8.189,8.189C212.792,330.591,209.127,334.257,204.604,334.257z"/>
	<path style="fill:#F0B0B7;" d="M384.774,334.257h-25.782c-4.522,0-8.189-3.666-8.189-8.189c0-4.523,3.666-8.189,8.189-8.189h25.782
		c4.523,0,8.189,3.665,8.189,8.189C392.962,330.591,389.297,334.257,384.774,334.257z"/>
</g>
<g>
</g>
<g>
</g>
<g>
</g>
<g>
</g>
<g>
</g>
<g>
</g>
<g>
</g>
<g>
</g>
<g>
</g>
<g>
</g>
<g>
</g>
<g>
</g>
<g>
</g>
<g>
</g>
<g>
</g>
</svg>
