<?xml version="1.0" encoding="iso-8859-1"?>
<!-- Generator: Adobe Illustrator 19.0.0, SVG Export Plug-In . SVG Version: 6.00 Build 0)  -->
<svg version="1.1" id="Capa_1" xmlns="http://www.w3.org/2000/svg" xmlns:xlink="http://www.w3.org/1999/xlink" x="0px" y="0px"
	 viewBox="0 0 512 512" style="enable-background:new 0 0 512 512;" xml:space="preserve">
<path style="fill:#EDECEC;" d="M346.906,216.443H165.085l-28.276,280.661c-0.804,7.974,5.456,14.896,13.47,14.896h211.433
	c8.014,0,14.274-6.922,13.47-14.896L346.906,216.443z"/>
<path style="fill:#394049;" d="M348.338,74.558C348.338,23.562,306.997,0,255.999,0s-92.338,23.562-92.338,74.558v61.252h184.676
	V74.558z"/>
<g>
	<polygon style="fill:#E6595A;" points="346.906,216.443 246.372,216.443 155.978,306.837 142.902,436.626 348.387,231.141 	"/>
	<polygon style="fill:#E6595A;" points="357.767,324.245 170.013,512 286.725,512 368.45,430.275 	"/>
</g>
<rect x="163.666" y="74.557" style="fill:#F3C74F;" width="184.675" height="61.249"/>
<g>
	<circle style="opacity:0.3;fill:#FFFFFF;enable-background:new    ;" cx="232.999" cy="105.187" r="30.63"/>
	<polygon style="opacity:0.2;fill:#FFFFFF;enable-background:new    ;" points="321.49,74.558 260.239,135.81 312.778,135.81 
		348.338,100.25 348.338,74.558 	"/>
	<polygon style="opacity:0.2;fill:#FFFFFF;enable-background:new    ;" points="163.662,74.558 163.662,112.759 201.862,74.558 	"/>
</g>
<rect x="163.666" y="74.557" style="opacity:0.1;enable-background:new    ;" width="184.675" height="10.183"/>
<polygon style="opacity:0.1;enable-background:new    ;" points="346.906,216.443 165.085,216.443 162.462,242.486 349.53,242.486 
	"/>
<path style="fill:#76C9D2;" d="M388.048,135.81H123.952c-7.155,0-12.955,5.8-12.955,12.955v54.724c0,7.155,5.8,12.955,12.955,12.955
	h264.095c7.155,0,12.955-5.8,12.955-12.955v-54.724C401.003,141.61,395.202,135.81,388.048,135.81z"/>
<g>
	<path style="fill:#394049;" d="M184.657,172.592c-4.519,0-8.181-3.662-8.181-8.181v-3.348c0-4.519,3.662-8.181,8.181-8.181
		c4.519,0,8.181,3.662,8.181,8.181v3.348C192.838,168.929,189.176,172.592,184.657,172.592z"/>
	<path style="fill:#394049;" d="M327.343,172.592c-4.519,0-8.181-3.662-8.181-8.181v-3.348c0-4.519,3.662-8.181,8.181-8.181
		s8.181,3.662,8.181,8.181v3.348C335.524,168.929,331.861,172.592,327.343,172.592z"/>
	<path style="fill:#394049;" d="M267.98,189.792c-4.482,0-8.628-1.47-11.979-3.954c-3.351,2.484-7.497,3.954-11.979,3.954
		c-11.117,0-20.16-9.045-20.16-20.162c0-4.519,3.662-8.181,8.181-8.181s8.181,3.662,8.181,8.181c0,2.095,1.705,3.799,3.798,3.799
		c2.094,0,3.798-1.705,3.798-3.799c0-4.519,3.662-8.181,8.181-8.181s8.181,3.662,8.181,8.181c0,2.095,1.705,3.799,3.798,3.799
		c2.094,0,3.798-1.705,3.798-3.799c0-4.519,3.662-8.181,8.181-8.181c4.519,0,8.181,3.662,8.181,8.181
		C288.14,180.747,279.096,189.792,267.98,189.792z"/>
</g>
<g>
	<path style="fill:#E6595A;" d="M194.867,196.63h-20.418c-4.519,0-8.181-3.662-8.181-8.181s3.662-8.181,8.181-8.181h20.418
		c4.519,0,8.181,3.662,8.181,8.181C203.048,192.967,199.385,196.63,194.867,196.63z"/>
	<path style="fill:#E6595A;" d="M337.551,196.63h-20.418c-4.518,0-8.181-3.662-8.181-8.181s3.663-8.181,8.181-8.181h20.418
		c4.519,0,8.181,3.662,8.181,8.181C345.732,192.967,342.07,196.63,337.551,196.63z"/>
</g>
<g>
	<path style="fill:#F3C74F;" d="M126.645,73.309c-1.117,0-2.253-0.23-3.339-0.716L67.759,47.728
		c-4.123-1.846-5.971-6.687-4.124-10.81c1.846-4.124,6.689-5.969,10.81-4.124l55.548,24.866c4.123,1.846,5.971,6.687,4.124,10.81
		C132.757,71.507,129.771,73.309,126.645,73.309z"/>
	<path style="fill:#F3C74F;" d="M121.292,113.365H61.679c-4.519,0-8.181-3.662-8.181-8.181c0-4.518,3.662-8.181,8.181-8.181h59.613
		c4.519,0,8.181,3.663,8.181,8.181C129.473,109.702,125.812,113.365,121.292,113.365z"/>
	<path style="fill:#F3C74F;" d="M385.354,73.309c-3.126,0-6.112-1.802-7.472-4.841c-1.846-4.123,0.001-8.964,4.124-10.81
		l55.548-24.866c4.123-1.846,8.963,0.001,10.81,4.124c1.846,4.123-0.001,8.964-4.124,10.81l-55.547,24.867
		C387.608,73.079,386.472,73.309,385.354,73.309z"/>
	<path style="fill:#F3C74F;" d="M450.321,113.365h-59.613c-4.519,0-8.181-3.662-8.181-8.181c0-4.518,3.662-8.181,8.181-8.181h59.613
		c4.519,0,8.181,3.663,8.181,8.181C458.502,109.702,454.84,113.365,450.321,113.365z"/>
</g>
<path style="fill:#394049;" d="M275.562,430.707h-39.133c-10.005,0-18.116,8.111-18.116,18.116v63.168h75.366v-63.168
	C293.678,438.818,285.568,430.707,275.562,430.707z"/>
<g>
</g>
<g>
</g>
<g>
</g>
<g>
</g>
<g>
</g>
<g>
</g>
<g>
</g>
<g>
</g>
<g>
</g>
<g>
</g>
<g>
</g>
<g>
</g>
<g>
</g>
<g>
</g>
<g>
</g>
</svg>
