<?xml version="1.0" encoding="iso-8859-1"?>
<!-- Generator: Adobe Illustrator 19.0.0, SVG Export Plug-In . SVG Version: 6.00 Build 0)  -->
<svg version="1.1" id="Capa_1" xmlns="http://www.w3.org/2000/svg" xmlns:xlink="http://www.w3.org/1999/xlink" x="0px" y="0px"
	 viewBox="0 0 511.998 511.998" style="enable-background:new 0 0 511.998 511.998;" xml:space="preserve">
<circle style="fill:#B67749;" cx="185.472" cy="240.063" r="44.457"/>
<path style="opacity:0.1;enable-background:new    ;" d="M185.468,195.605c-0.617,0-1.228,0.022-1.838,0.047l-12.758,86.403
	c4.573,1.589,9.481,2.464,14.596,2.464c24.552,0,44.457-19.904,44.457-44.458C229.925,215.509,210.021,195.605,185.468,195.605z"/>
<path style="fill:#57B089;" d="M363.883,9.147c-1.048-7.72-9.814-11.685-16.303-7.372c-21.82,14.504-64.552,47.786-87.439,98.403
	c-1.492,3.299-2.867,6.612-4.143,9.931c-1.277-3.32-2.652-6.633-4.143-9.931c-22.887-50.617-65.619-83.899-87.439-98.403
	c-6.489-4.313-15.256-0.348-16.303,7.372c-3.523,25.962-6.757,80.03,16.13,130.647c20.644,45.656,57.427,77.202,80.454,93.593
	c1.831,4.545,6.601,7.144,11.302,6.458c4.701,0.686,9.471-1.912,11.302-6.458c23.026-16.389,59.809-47.937,80.454-93.593
	C370.641,89.176,367.406,35.11,363.883,9.147z"/>
<path style="opacity:0.1;enable-background:new    ;" d="M363.883,9.147c-1.048-7.72-9.814-11.685-16.303-7.372
	c-21.82,14.504-64.552,47.786-87.439,98.403c-1.492,3.299-2.867,6.612-4.143,9.931c-1.277-3.32-2.652-6.633-4.143-9.931
	c-22.887-50.617-65.619-83.899-87.439-98.403c-6.489-4.313-15.256-0.348-16.303,7.372c-3.523,25.962-6.757,80.03,16.13,130.647
	c20.644,45.656,57.427,77.202,80.454,93.593c1.831,4.545,6.601,7.144,11.302,6.458c4.701,0.686,9.471-1.912,11.302-6.458
	c23.026-16.389,59.809-47.937,80.454-93.593C370.641,89.176,367.406,35.11,363.883,9.147z"/>
<path style="opacity:0.05;enable-background:new    ;" d="M324.952,75.318c-32.548,21.946-54.888,52.202-68.955,76.517
	c-14.066-24.316-36.406-54.57-68.955-76.517c-13.401-9.036-27.458-15.929-41.304-21.199c0.715,25.58,5.178,56.207,18.503,85.675
	c7.017,15.519,15.901,29.402,25.472,41.619c22.502,6.861,43.537,9.738,59.121,10.881c1.17,0.401,2.438,0.615,3.784,0.57
	c1.075-0.037,2.213-0.085,3.378-0.139c1.166,0.054,2.303,0.103,3.378,0.139c1.346,0.046,2.614-0.169,3.784-0.57
	c15.584-1.143,36.619-4.022,59.121-10.881c9.572-12.218,18.456-26.1,25.473-41.619c13.325-29.468,17.787-60.095,18.503-85.675
	C352.41,59.389,338.352,66.283,324.952,75.318z"/>
<path style="fill:#57B089;" d="M269.379,196.884c3.163,7.121-2.216,15.097-10.003,14.835c-26.186-0.884-80.029-6.767-126.088-37.823
	S61.59,95.129,50.953,71.185c-3.163-7.121,2.216-15.097,10.003-14.835c26.186,0.884,80.029,6.767,126.088,37.823
	C233.102,125.23,258.742,172.94,269.379,196.884z"/>
<path style="opacity:0.05;enable-background:new    ;" d="M269.379,196.884c3.163,7.121-2.216,15.097-10.003,14.835
	c-26.186-0.884-80.029-6.767-126.088-37.823S61.59,95.129,50.953,71.185c-3.163-7.121,2.216-15.097,10.003-14.835
	c26.186,0.884,80.029,6.767,126.088,37.823C233.102,125.23,258.742,172.94,269.379,196.884z"/>
<path style="opacity:0.05;enable-background:new    ;" d="M163.771,129.921c-26.683-3.694-52.395-1.26-74.54,3.443
	c11.922,14.437,26.503,28.694,44.057,40.531c33.324,22.47,70.719,31.758,98.77,35.514c10.563-6.583,18.291-13.604,23.941-18.185
	C246.854,175.012,214.127,136.894,163.771,129.921z"/>
<path style="fill:#57B089;" d="M242.616,196.884c-3.163,7.121,2.216,15.097,10.003,14.835c26.186-0.884,80.029-6.767,126.088-37.823
	s71.699-78.767,82.336-102.711c3.163-7.121-2.216-15.097-10.003-14.835c-26.186,0.884-80.029,6.767-126.088,37.823
	C278.893,125.23,253.253,172.94,242.616,196.884z"/>
<path style="opacity:0.05;enable-background:new    ;" d="M242.616,196.884c-3.163,7.121,2.216,15.097,10.003,14.835
	c26.186-0.884,80.029-6.767,126.088-37.823s71.699-78.767,82.336-102.711c3.163-7.121-2.216-15.097-10.003-14.835
	c-26.186,0.884-80.029,6.767-126.088,37.823C278.893,125.23,253.253,172.94,242.616,196.884z"/>
<path style="opacity:0.05;enable-background:new    ;" d="M348.227,129.921c26.683-3.694,52.395-1.26,74.54,3.443
	c-11.922,14.437-26.503,28.694-44.057,40.531c-33.324,22.47-70.719,31.758-98.77,35.514c-10.563-6.583-18.29-13.604-23.941-18.185
	C265.144,175.012,297.871,136.894,348.227,129.921z"/>
<path style="fill:#E9D286;" d="M313.703,191.278H199.688l-43.578,295.13c-1.991,13.484,8.458,25.59,22.089,25.59h156.994
	c13.63,0,24.08-12.106,22.089-25.59L313.703,191.278z"/>
<path style="opacity:0.05;enable-background:new    ;" d="M313.703,191.278H199.689l-9.271,62.79
	c36.85-9.422,55.068-32.745,65.582-43.988c10.651,11.388,29.213,35.163,67.028,44.339L313.703,191.278z"/>
<path style="opacity:0.15;enable-background:new    ;" d="M326.673,279.112H186.719l-2.404,16.283h144.763L326.673,279.112z
	 M341.358,378.568H172.033l-2.404,16.283h174.134L341.358,378.568z"/>
<circle style="fill:#B67749;" cx="290.583" cy="221.327" r="45.863"/>
<path style="opacity:0.1;enable-background:new    ;" d="M290.584,175.464c-19.232,0-35.689,11.843-42.5,28.631
	c11.898,15.658,30.646,31.957,62.291,41.683c5.355,1.646,10.71,3.012,16.039,4.152c6.271-7.844,10.029-17.784,10.029-28.608
	C336.443,195.996,315.911,175.464,290.584,175.464z"/>
<g>
	<path style="fill:#394049;" d="M194.297,449.178c-4.496,0-8.141-3.645-8.141-8.141v-2.896c0-4.496,3.645-8.141,8.141-8.141
		s8.141,3.645,8.141,8.141v2.896C202.438,445.533,198.794,449.178,194.297,449.178z"/>
	<path style="fill:#394049;" d="M317.708,449.178c-4.497,0-8.141-3.645-8.141-8.141v-2.896c0-4.496,3.644-8.141,8.141-8.141
		c4.497,0,8.141,3.645,8.141,8.141v2.896C325.849,445.533,322.204,449.178,317.708,449.178z"/>
	<path style="fill:#394049;" d="M266.365,464.054c-3.836,0-7.403-1.173-10.361-3.181c-2.958,2.007-6.526,3.181-10.361,3.181
		c-10.203,0-18.503-8.301-18.503-18.503c0-4.496,3.645-8.141,8.141-8.141s8.141,3.645,8.141,8.141c0,1.224,0.997,2.22,2.22,2.22
		c1.224,0,2.22-0.997,2.22-2.22c0-4.496,3.645-8.141,8.141-8.141c4.496,0,8.14,3.645,8.14,8.141c0,1.224,0.997,2.22,2.221,2.22
		c1.224,0,2.22-0.997,2.22-2.22c0-4.496,3.644-8.141,8.141-8.141c4.496,0,8.141,3.645,8.141,8.141
		C284.868,455.754,276.567,464.054,266.365,464.054z"/>
</g>
<g>
	<path style="fill:#E6595A;" d="M203.128,469.968h-17.659c-4.496,0-8.141-3.645-8.141-8.141c0-4.496,3.645-8.141,8.141-8.141h17.659
		c4.496,0,8.141,3.645,8.141,8.141C211.269,466.323,207.624,469.968,203.128,469.968z"/>
	<path style="fill:#E6595A;" d="M326.536,469.968h-17.66c-4.497,0-8.141-3.645-8.141-8.141c0-4.496,3.644-8.141,8.141-8.141h17.66
		c4.496,0,8.141,3.645,8.141,8.141C334.678,466.323,331.034,469.968,326.536,469.968z"/>
</g>
<g>
	<path style="fill:#57B089;" d="M255.999,191.225c-11.282-14.807-48.927-48.077-99.764-48.077
		c-55.551,0-103.483,25.223-125.688,39.13c-6.603,4.136-6.603,13.757,0,17.893c22.205,13.907,70.138,39.13,125.688,39.13
		C216.875,239.302,242.641,205.507,255.999,191.225z"/>
	<path style="fill:#57B089;" d="M255.999,191.225c11.282-14.807,48.927-48.077,99.764-48.077c55.551,0,103.483,25.223,125.688,39.13
		c6.603,4.136,6.603,13.757,0,17.893c-22.205,13.907-70.138,39.13-125.688,39.13C295.124,239.302,269.357,205.507,255.999,191.225z"
		/>
</g>
<g>
</g>
<g>
</g>
<g>
</g>
<g>
</g>
<g>
</g>
<g>
</g>
<g>
</g>
<g>
</g>
<g>
</g>
<g>
</g>
<g>
</g>
<g>
</g>
<g>
</g>
<g>
</g>
<g>
</g>
</svg>
