<?xml version="1.0" encoding="iso-8859-1"?>
<!-- Generator: Adobe Illustrator 19.0.0, SVG Export Plug-In . SVG Version: 6.00 Build 0)  -->
<svg version="1.1" id="Capa_1" xmlns="http://www.w3.org/2000/svg" xmlns:xlink="http://www.w3.org/1999/xlink" x="0px" y="0px"
	 viewBox="0 0 512 512" style="enable-background:new 0 0 512 512;" xml:space="preserve">
<path style="fill:#E9D286;" d="M297.294,401.03v69.673c0,22.807-18.489,41.297-41.297,41.297s-41.297-18.49-41.297-41.297V401.03
	H297.294z"/>
<rect x="214.698" y="401.029" style="opacity:0.1;enable-background:new    ;" width="82.593" height="22.311"/>
<path style="fill:#F0B0B7;" d="M401.981,145.981c0-80.795-65.637-146.259-146.497-145.98
	c-80.68,0.279-145.465,66.883-145.465,147.564v214.961c0,21.265,17.239,38.504,38.504,38.504h214.954
	c21.265,0,38.504-17.239,38.504-38.504V145.981H401.981z"/>
<path style="fill:#76C9D2;" d="M110.019,344.572v17.955c0,21.265,17.239,38.504,38.504,38.504h214.954
	c21.265,0,38.504-17.239,38.504-38.504v-17.955L110.019,344.572L110.019,344.572z"/>
<path style="opacity:0.1;enable-background:new    ;" d="M314.693,252.448c-13.685,0-24.778,11.094-24.778,24.778V401.03h49.556
	V277.226C339.471,263.542,328.379,252.448,314.693,252.448z"/>
<path style="opacity:0.1;enable-background:new    ;" d="M196.267,252.448c-13.685,0-24.778,11.094-24.778,24.778V401.03h49.556
	V277.226C221.045,263.542,209.952,252.448,196.267,252.448z"/>
<g>
	<path style="fill:#394049;" d="M174.892,145.4c-4.562,0-8.259-3.698-8.259-8.259v-3.806c0-4.561,3.697-8.259,8.259-8.259
		c4.562,0,8.259,3.698,8.259,8.259v3.806C183.151,141.702,179.454,145.4,174.892,145.4z"/>
	<path style="fill:#394049;" d="M337.108,145.4c-4.562,0-8.259-3.698-8.259-8.259v-3.806c0-4.561,3.697-8.259,8.259-8.259
		c4.561,0,8.259,3.698,8.259,8.259v3.806C345.367,141.702,341.67,145.4,337.108,145.4z"/>
	<path style="fill:#394049;" d="M269.621,164.955c-5.145,0-9.88-1.785-13.62-4.768c-3.74,2.983-8.475,4.768-13.62,4.768
		c-12.064,0-21.878-9.815-21.878-21.88c0-4.561,3.697-8.259,8.259-8.259c4.562,0,8.259,3.698,8.259,8.259
		c0,2.956,2.405,5.361,5.36,5.361c2.957,0,5.361-2.405,5.361-5.361c0-4.561,3.697-8.259,8.259-8.259
		c4.562,0,8.259,3.698,8.259,8.259c0,2.956,2.405,5.361,5.361,5.361c2.956,0,5.36-2.405,5.36-5.361c0-4.561,3.697-8.259,8.259-8.259
		s8.259,3.698,8.259,8.259C291.499,155.14,281.685,164.955,269.621,164.955z"/>
</g>
<g>
	<path style="fill:#FFFFFF;" d="M186.499,172.728h-23.213c-4.562,0-8.259-3.698-8.259-8.259s3.697-8.259,8.259-8.259h23.213
		c4.562,0,8.259,3.698,8.259,8.259S191.061,172.728,186.499,172.728z"/>
	<path style="fill:#FFFFFF;" d="M348.714,172.728h-23.213c-4.562,0-8.259-3.698-8.259-8.259s3.697-8.259,8.259-8.259h23.213
		c4.562,0,8.259,3.698,8.259,8.259S353.277,172.728,348.714,172.728z"/>
</g>
<g>
</g>
<g>
</g>
<g>
</g>
<g>
</g>
<g>
</g>
<g>
</g>
<g>
</g>
<g>
</g>
<g>
</g>
<g>
</g>
<g>
</g>
<g>
</g>
<g>
</g>
<g>
</g>
<g>
</g>
</svg>
