<?xml version="1.0" encoding="iso-8859-1"?>
<!-- Generator: Adobe Illustrator 19.0.0, SVG Export Plug-In . SVG Version: 6.00 Build 0)  -->
<svg version="1.1" id="Capa_1" xmlns="http://www.w3.org/2000/svg" xmlns:xlink="http://www.w3.org/1999/xlink" x="0px" y="0px"
	 viewBox="0 0 512 512" style="enable-background:new 0 0 512 512;" xml:space="preserve">
<path style="fill:#E9D286;" d="M324.683,215.698v-54.403H187.317v54.403c0,9.016-7.309,16.324-16.324,16.324h-64.311V431.56h298.638
	V232.023h-64.312C331.992,232.023,324.683,224.714,324.683,215.698z"/>
<g>
	<path style="fill:#394049;" d="M176.867,290.679c-4.495,0-8.139-3.644-8.139-8.139V278.8c0-4.495,3.644-8.139,8.139-8.139
		c4.495,0,8.139,3.644,8.139,8.139v3.741C185.006,287.035,181.362,290.679,176.867,290.679z"/>
	<path style="fill:#394049;" d="M336.273,290.679c-4.495,0-8.139-3.644-8.139-8.139V278.8c0-4.495,3.644-8.139,8.139-8.139
		s8.139,3.644,8.139,8.139v3.741C344.411,287.035,340.767,290.679,336.273,290.679z"/>
	<path style="fill:#394049;" d="M269.954,309.894c-5.055,0-9.707-1.751-13.383-4.679c-3.677,2.928-8.33,4.679-13.383,4.679
		c-11.867,0-21.522-9.655-21.522-21.522c0-4.495,3.644-8.139,8.139-8.139s8.139,3.644,8.139,8.139c0,2.892,2.353,5.245,5.245,5.245
		s5.245-2.353,5.245-5.245c0-4.495,3.644-8.139,8.139-8.139c4.495,0,8.139,3.644,8.139,8.139c0,2.892,2.354,5.245,5.245,5.245
		c2.892,0,5.246-2.353,5.246-5.245c0-4.495,3.644-8.139,8.139-8.139c4.495,0,8.139,3.644,8.139,8.139
		C291.477,300.239,281.821,309.894,269.954,309.894z"/>
</g>
<g>
	<path style="fill:#E6595A;" d="M188.272,317.533h-22.81c-4.495,0-8.139-3.644-8.139-8.139c0-4.495,3.644-8.139,8.139-8.139h22.81
		c4.495,0,8.139,3.644,8.139,8.139C196.411,313.889,192.767,317.533,188.272,317.533z"/>
	<path style="fill:#E6595A;" d="M347.678,317.533h-22.81c-4.495,0-8.139-3.644-8.139-8.139c0-4.495,3.644-8.139,8.139-8.139h22.81
		c4.495,0,8.139,3.644,8.139,8.139C355.816,313.889,352.172,317.533,347.678,317.533z"/>
</g>
<rect x="106.683" y="232.019" style="opacity:0.05;enable-background:new    ;" width="18.093" height="199.54"/>
<rect x="387.231" y="232.019" style="opacity:0.05;enable-background:new    ;" width="18.092" height="199.54"/>
<rect x="187.321" y="161.299" style="opacity:0.1;enable-background:new    ;" width="137.36" height="21.649"/>
<path style="fill:#E9D286;" d="M247.724,39.219l-60.326,69.451h137.203l-60.326-69.451
	C259.906,34.187,252.094,34.187,247.724,39.219z"/>
<polygon style="opacity:0.05;enable-background:new    ;" points="310.338,92.249 201.662,92.249 187.398,108.67 324.602,108.67 "/>
<g>
	<path style="fill:#E9D286;" d="M331.892,108.67H180.109c-5.583,0-10.108,4.525-10.108,10.108v32.41
		c0,5.583,4.526,10.108,10.108,10.108h151.782c5.583,0,10.108-4.526,10.108-10.108v-32.41
		C342,113.196,337.474,108.67,331.892,108.67z"/>
	<rect x="23.393" y="194.907" style="fill:#E9D286;" width="83.287" height="236.653"/>
</g>
<rect x="23.393" y="194.907" style="opacity:0.1;enable-background:new    ;" width="83.287" height="20.127"/>
<g>
	<path style="fill:#E9D286;" d="M101.952,98.699v11.558c0,3.563-2.888,6.45-6.45,6.45h-9.953c-3.563,0-6.45-2.888-6.45-6.45V98.699
		c0-3.563-2.888-6.45-6.45-6.45H57.427c-3.563,0-6.45,2.888-6.45,6.45v11.558c0,3.563-2.888,6.45-6.45,6.45h-9.953
		c-3.563,0-6.45-2.888-6.45-6.45V98.699c0-3.563-2.888-6.45-6.45-6.45H6.45c-3.563,0-6.45,2.888-6.45,6.45v83.17
		c0,7.202,5.838,13.039,13.039,13.039h103.995c7.202,0,13.04-5.838,13.04-13.039v-83.17c0-3.563-2.888-6.45-6.45-6.45h-15.222
		C104.84,92.249,101.952,95.136,101.952,98.699z"/>
	<rect x="405.321" y="194.907" style="fill:#E9D286;" width="83.287" height="236.653"/>
</g>
<rect x="405.321" y="194.907" style="opacity:0.1;enable-background:new    ;" width="83.287" height="20.127"/>
<path style="fill:#E9D286;" d="M410.048,98.699v11.558c0,3.563,2.888,6.45,6.45,6.45h9.953c3.563,0,6.45-2.888,6.45-6.45V98.699
	c0-3.563,2.888-6.45,6.45-6.45h15.221c3.563,0,6.45,2.888,6.45,6.45v11.558c0,3.563,2.888,6.45,6.45,6.45h9.953
	c3.563,0,6.45-2.888,6.45-6.45V98.699c0-3.563,2.888-6.45,6.45-6.45h15.221c3.563,0,6.45,2.888,6.45,6.45v83.17
	c0,7.202-5.838,13.039-13.039,13.039H394.963c-7.202,0-13.04-5.838-13.04-13.039v-83.17c0-3.563,2.888-6.45,6.45-6.45h15.221
	C407.16,92.249,410.048,95.136,410.048,98.699z"/>
<path style="opacity:0.15;enable-background:new    ;" d="M306.42,388.793c0-27.532-22.319-49.85-49.849-49.85
	s-49.85,22.319-49.85,49.85v42.766h99.7V388.793z"/>
<path style="fill:#E9D286;" d="M0,416.797c0-5.402,4.113-9.901,9.491-10.412c39.643-3.768,114.799,1.976,169.677,14.964
	c67.906,16.072,137.514,1.763,189.89-7.414c48.042-8.419,102.554-4.913,132.599,4.103c6.141,1.843,10.344,7.484,10.344,13.896v33.42
	c0,6.187-5.015,11.201-11.201,11.201H11.201C5.015,476.555,0,471.541,0,465.354V416.797z"/>
<path style="opacity:0.3;fill:#FFFFFF;enable-background:new    ;" d="M0,416.797c0-5.402,4.113-9.901,9.491-10.412
	c39.643-3.768,114.799,1.976,169.677,14.964c67.906,16.072,137.514,1.763,189.89-7.414c48.042-8.419,102.554-4.913,132.599,4.103
	c6.141,1.843,10.344,7.484,10.344,13.896v33.42c0,6.187-5.015,11.201-11.201,11.201H11.201C5.015,476.555,0,471.541,0,465.354
	V416.797z"/>
<circle style="opacity:0.05;enable-background:new    ;" cx="50.683" cy="260.093" r="8.179"/>
<circle style="opacity:0.1;enable-background:new    ;" cx="83.004" cy="364.052" r="8.179"/>
<circle style="opacity:0.05;enable-background:new    ;" cx="153.345" cy="355.869" r="8.179"/>
<circle style="opacity:0.1;enable-background:new    ;" cx="295.838" cy="207.408" r="8.179"/>
<circle style="opacity:0.03;enable-background:new    ;" cx="268.145" cy="82.266" r="8.179"/>
<circle style="opacity:0.05;enable-background:new    ;" cx="222.872" cy="141.213" r="8.179"/>
<circle style="opacity:0.1;enable-background:new    ;" cx="95.093" cy="148.939" r="8.179"/>
<circle style="opacity:0.05;enable-background:new    ;" cx="461.315" cy="253.006" r="8.179"/>
<circle style="opacity:0.1;enable-background:new    ;" cx="440.458" cy="338.941" r="8.179"/>
<circle style="opacity:0.05;enable-background:new    ;" cx="415.923" cy="169.535" r="8.179"/>
<circle style="opacity:0.1;enable-background:new    ;" cx="473.925" cy="143.578" r="8.179"/>
<circle style="opacity:0.1;enable-background:new    ;" cx="49.598" cy="448.456" r="8.179"/>
<circle style="opacity:0.1;enable-background:new    ;" cx="424.094" cy="440.903" r="8.179"/>
<circle style="opacity:0.05;enable-background:new    ;" cx="161.516" cy="440.903" r="8.179"/>
<g>
</g>
<g>
</g>
<g>
</g>
<g>
</g>
<g>
</g>
<g>
</g>
<g>
</g>
<g>
</g>
<g>
</g>
<g>
</g>
<g>
</g>
<g>
</g>
<g>
</g>
<g>
</g>
<g>
</g>
</svg>
