<?xml version="1.0" encoding="iso-8859-1"?>
<!-- Generator: Adobe Illustrator 19.0.0, SVG Export Plug-In . SVG Version: 6.00 Build 0)  -->
<svg version="1.1" id="Capa_1" xmlns="http://www.w3.org/2000/svg" xmlns:xlink="http://www.w3.org/1999/xlink" x="0px" y="0px"
	 viewBox="0 0 512 512" style="enable-background:new 0 0 512 512;" xml:space="preserve">
<path style="fill:#F3C74F;" d="M98.488,124.189l43.441,324.754c1.217,9.097,8.979,15.891,18.157,15.891h66.722
	c8.488,0,15.368-6.88,15.368-15.368v-24.797c0-6.427,5.21-11.636,11.636-11.636h80.328c6.427,0,11.636,5.21,11.636,11.636v24.797
	c0,8.488,6.88,15.368,15.368,15.368h66.722c9.178,0,16.94-6.792,18.157-15.891l43.441-324.754H98.488z"/>
<path style="opacity:0.1;enable-background:new    ;" d="M489.465,124.189H98.488l5.341,39.933h308.206
	c9.142,51.463,28.117,79.39,60.053,89.973l2.67-19.956c-12.464-5.036-21.65-13.794-28.819-27.061
	c-5.962-11.033-10.593-25.203-13.973-42.957h52.158L489.465,124.189z"/>
<path style="opacity:0.05;enable-background:new    ;" d="M130.565,363.985h326.824l2.201-16.449H128.365L130.565,363.985z
	 M118.907,276.836l2.201,16.449h345.738l2.201-16.449H118.907L118.907,276.836z"/>
<path style="fill:#76C9D2;" d="M491.994,79.414h-32.546V50.439c0-24.481-19.846-44.326-44.326-44.326
	c-24.481,0-44.326,19.846-44.326,44.326v28.974H95.959c-10.759,0-19.481,8.722-19.481,19.481v25.307
	c0,10.759,8.722,19.481,19.481,19.481h396.035c10.759,0,19.481-8.722,19.481-19.481V98.895
	C511.475,88.135,502.753,79.414,491.994,79.414z"/>
<path style="fill:#EDECEC;" d="M503.78,240.954c-0.067,0-0.133,0-0.201-0.002c-35.192-0.838-58.555-14.13-73.524-41.829
	c-15.799-29.236-23.158-76.482-23.158-148.682c0-4.542,3.681-8.224,8.224-8.224s8.224,3.682,8.224,8.224
	c0,69.363,6.731,114.123,21.181,140.862c12.2,22.573,29.977,32.505,59.445,33.206c4.541,0.109,8.134,3.878,8.026,8.417
	C511.891,237.4,508.23,240.954,503.78,240.954z"/>
<path style="fill:#E6595A;" d="M293.803,414.998l-65.182-147.734c-5.006-11.346-17.952-16.868-29.606-12.627L154.867,270.7l0,0
	L112.57,154.455c22.927-18.082,32.855-49.51,22.339-78.412C121.796,40.006,81.81,21.354,45.772,34.467
	C9.735,47.579-8.916,87.565,4.196,123.604c10.516,28.902,38.318,46.602,67.505,45.722l42.297,116.245l0,0L69.85,301.634
	c-11.655,4.241-18.025,16.79-14.569,28.7l44.996,155.079c4.573,15.761,21.526,24.367,36.948,18.755l140.322-51.055
	C292.97,447.5,300.427,430.013,293.803,414.998z M78.462,124.311c-13.502,4.913-28.485-2.075-33.398-15.578
	c-4.913-13.503,2.076-28.485,15.578-33.398S89.128,77.41,94.04,90.913C98.953,104.417,91.965,119.398,78.462,124.311z"/>
<path style="opacity:0.15;enable-background:new    ;" d="M215.285,299.823c-3.226-7.425-11.675-11.057-19.284-8.289L95.87,327.968
	c-7.608,2.768-11.748,10.98-9.448,18.743l46.969,158.549c1.284-0.273,2.565-0.629,3.835-1.092l140.321-51.056
	c1.271-0.463,2.482-1.012,3.641-1.628L215.285,299.823z"/>
<g style="opacity:0.1;">
	<path d="M190.1,439.37c-3.36,0-6.515-2.074-7.73-5.414l-26.866-73.817c-1.554-4.268,0.648-8.988,4.915-10.542
		c4.272-1.556,8.989,0.648,10.542,4.916l26.866,73.817c1.554,4.268-0.648,8.988-4.915,10.542
		C191.983,439.21,191.032,439.37,190.1,439.37z"/>
	<path d="M155.786,451.859c-3.36,0-6.514-2.074-7.73-5.414l-26.868-73.817c-1.554-4.268,0.647-8.988,4.915-10.542
		c4.27-1.555,8.989,0.648,10.542,4.915l26.868,73.817c1.554,4.268-0.648,8.988-4.915,10.542
		C157.67,451.699,156.719,451.859,155.786,451.859z"/>
	<path d="M224.413,426.881c-3.36,0-6.515-2.074-7.73-5.414l-26.866-73.817c-1.554-4.268,0.648-8.988,4.915-10.542
		c4.272-1.556,8.989,0.648,10.542,4.916l26.866,73.817c1.554,4.268-0.648,8.988-4.915,10.542
		C226.297,426.721,225.345,426.881,224.413,426.881z"/>
</g>
<g>
	<path style="fill:#394049;" d="M200.186,208.397c-4.543,0-8.224-3.682-8.224-8.224v-3.852c0-4.542,3.681-8.224,8.224-8.224
		c4.543,0,8.224,3.682,8.224,8.224v3.852C208.41,204.715,204.729,208.397,200.186,208.397z"/>
	<path style="fill:#394049;" d="M364.339,208.397c-4.542,0-8.224-3.682-8.224-8.224v-3.852c0-4.542,3.682-8.224,8.224-8.224
		c4.543,0,8.224,3.682,8.224,8.224v3.852C372.563,204.715,368.882,208.397,364.339,208.397z"/>
	<path style="fill:#394049;" d="M296.045,228.185c-5.213,0-10.009-1.823-13.783-4.862c-3.773,3.04-8.569,4.862-13.782,4.862
		c-12.134,0-22.006-9.873-22.006-22.007c0-4.542,3.681-8.224,8.224-8.224c4.543,0,8.224,3.682,8.224,8.224
		c0,3.065,2.493,5.559,5.558,5.559s5.557-2.494,5.557-5.559c0-4.542,3.681-8.224,8.224-8.224s8.224,3.682,8.224,8.224
		c0,3.065,2.494,5.559,5.559,5.559c3.065,0,5.557-2.494,5.557-5.559c0-4.542,3.681-8.224,8.224-8.224s8.224,3.682,8.224,8.224
		C318.052,218.313,308.179,228.185,296.045,228.185z"/>
</g>
<g>
	<path style="fill:#E6595A;" d="M211.93,236.051h-23.49c-4.543,0-8.224-3.682-8.224-8.224s3.681-8.224,8.224-8.224h23.49
		c4.543,0,8.224,3.682,8.224,8.224S216.474,236.051,211.93,236.051z"/>
	<path style="fill:#E6595A;" d="M376.084,236.051h-23.49c-4.543,0-8.224-3.682-8.224-8.224s3.681-8.224,8.224-8.224h23.49
		c4.543,0,8.224,3.682,8.224,8.224S380.628,236.051,376.084,236.051z"/>
</g>
<g>
</g>
<g>
</g>
<g>
</g>
<g>
</g>
<g>
</g>
<g>
</g>
<g>
</g>
<g>
</g>
<g>
</g>
<g>
</g>
<g>
</g>
<g>
</g>
<g>
</g>
<g>
</g>
<g>
</g>
</svg>
