<?xml version="1.0" encoding="iso-8859-1"?>
<!-- Generator: Adobe Illustrator 19.0.0, SVG Export Plug-In . SVG Version: 6.00 Build 0)  -->
<svg version="1.1" id="Capa_1" xmlns="http://www.w3.org/2000/svg" xmlns:xlink="http://www.w3.org/1999/xlink" x="0px" y="0px"
	 viewBox="0 0 512 512" style="enable-background:new 0 0 512 512;" xml:space="preserve">
<path style="fill:#F0B0B7;" d="M202.918,139.743l-92.016,42.79c-41.509,19.303-72.853,55.344-86.209,99.131l0,0
	C3.857,349.966,8.988,423.557,39.098,488.307l2.721,5.85c8.353,17.962,31.233,23.503,46.878,11.351l1.373-1.066
	c37.429-29.07,80.54-49.966,126.548-61.338l0,0c24.231-5.989,47.826-14.304,70.458-24.828l74.854-34.809L202.918,139.743z"/>
<path style="opacity:0.2;enable-background:new    ;" d="M254.274,338.765c-22.976-40.202-72.919-56.099-114.906-36.574l0,0
	c-29.219,13.588-50.088,40.435-56.048,72.102l0,0c-7.983,42.417-3.273,85.966,13.126,125.33
	c35.918-26.562,76.751-45.786,120.171-56.518l0,0c24.231-5.989,47.826-14.304,70.458-24.829l24.267-11.285
	C288.47,387.832,269.124,364.752,254.274,338.765L254.274,338.765z"/>
<path style="fill:#F0B0B7;" d="M319.251,66.69l-15.469,1.887c-43.432,5.298-81.312,32.025-100.865,71.166l0,0l0,0
	c23.544,90.717,74.513,171.956,145.948,232.628l13.065,11.097l9.103-6.022c36.505-24.148,58.462-65,58.458-108.77l-0.003-47.284
	L319.251,66.69z"/>
<path style="opacity:0.2;fill:#FFFFFF;enable-background:new    ;" d="M319.251,66.69l-15.469,1.887
	c-43.432,5.298-81.312,32.025-100.865,71.166l0,0l0,0c23.544,90.717,74.513,171.956,145.948,232.628l13.065,11.097l9.103-6.022
	c36.505-24.148,58.462-65,58.458-108.77l-0.003-47.284L319.251,66.69z"/>
<g>
	<path style="fill:#394049;" d="M285.409,151.162c-2.543,0-5.051-1.182-6.65-3.405c-2.641-3.668-1.807-8.785,1.862-11.426
		l2.967-2.135c3.667-2.64,8.785-1.809,11.426,1.862c2.641,3.668,1.807,8.785-1.862,11.426l-2.967,2.135
		C288.738,150.661,287.066,151.162,285.409,151.162z"/>
	<path style="fill:#394049;" d="M376.377,277.599c-2.544,0-5.051-1.183-6.651-3.406c-2.64-3.67-1.805-8.785,1.864-11.426
		l2.968-2.135c3.67-2.64,8.784-1.805,11.426,1.864c2.64,3.67,1.805,8.785-1.864,11.426l-2.968,2.135
		C379.705,277.098,378.034,277.599,376.377,277.599z"/>
	<path style="fill:#394049;" d="M333.928,241.392c-6.617,0-13.139-3.069-17.289-8.838c-2.806-3.899-4.186-8.526-3.99-13.253
		c-4.395-1.282-8.41-3.983-11.285-7.979c-3.317-4.61-4.641-10.237-3.726-15.843c0.915-5.607,3.958-10.521,8.569-13.838
		c3.67-2.639,8.786-1.804,11.427,1.865c2.639,3.671,1.804,8.786-1.865,11.427c-1.061,0.762-1.761,1.893-1.971,3.182
		c-0.211,1.29,0.094,2.584,0.857,3.646c1.575,2.187,4.639,2.69,6.828,1.113c3.67-2.64,8.785-1.804,11.427,1.865
		c1.041,1.448,1.541,3.121,1.541,4.778c-0.002,2.543-1.185,5.049-3.406,6.648c-1.061,0.762-1.761,1.893-1.971,3.183
		c-0.211,1.289,0.094,2.582,0.857,3.643c1.573,2.189,4.639,2.692,6.828,1.114c3.668-2.639,8.785-1.804,11.427,1.865
		c2.639,3.671,1.804,8.786-1.865,11.427C342.569,240.096,338.228,241.392,333.928,241.392z"/>
</g>
<g>
	<path style="fill:#E6595A;" d="M270.62,175.534c-2.544,0-5.051-1.183-6.651-3.406l-13.018-18.092
		c-2.64-3.67-1.805-8.785,1.864-11.426c3.668-2.639,8.784-1.805,11.426,1.864l13.018,18.092c2.64,3.67,1.805,8.785-1.864,11.426
		C273.948,175.033,272.275,175.534,270.62,175.534z"/>
	<path style="fill:#E6595A;" d="M361.586,301.969c-2.544,0-5.051-1.183-6.651-3.406l-13.018-18.092
		c-2.64-3.67-1.805-8.785,1.864-11.426c3.668-2.64,8.784-1.806,11.426,1.864l13.018,18.092c2.64,3.67,1.805,8.785-1.864,11.426
		C364.914,301.468,363.243,301.969,361.586,301.969z"/>
</g>
<g>
	<path style="fill:#F0B0B7;" d="M429.488,221.392L429.488,221.392c23.869-22.169,38.495-52.529,40.953-85.014l0.776-10.262
		l-73.843-91.025l-11.647,1.618c-24.129,3.351-46.821,13.448-65.464,29.129l-1.012,0.851L429.488,221.392z"/>
	<path style="fill:#F0B0B7;" d="M471.217,126.117l0.516-0.822c12.022-19.136,16.179-42.18,11.601-64.31l0,0l-40.052-43.453
		l-10.638-0.68c-14.225-0.91-27.791,6.106-35.271,18.241l0,0L471.217,126.117z"/>
</g>
<path style="opacity:0.2;fill:#FFFFFF;enable-background:new    ;" d="M471.217,126.117l0.516-0.822
	c12.022-19.136,16.179-42.18,11.601-64.31l0,0l-40.052-43.453l-10.638-0.68c-14.225-0.91-27.791,6.106-35.271,18.241l0,0
	L471.217,126.117z"/>
<path style="fill:#F0B0B7;" d="M483.336,60.985c0,0,18.351-15.061,16.434-46.426c-0.578-9.471-9.401-16.179-18.684-14.216
	c-9.753,2.062-22.161,6.896-37.803,17.191L483.336,60.985z"/>
<g style="opacity:0.1;">
	<circle cx="50.393" cy="422.357" r="8.185"/>
	<circle cx="80.528" cy="249.587" r="8.185"/>
	<circle cx="162.28" cy="264.18" r="8.185"/>
	<circle cx="61.975" cy="325.87" r="8.185"/>
	<circle cx="187.013" cy="205.492" r="8.185"/>
	<circle cx="235.889" cy="280.552" r="8.185"/>
	<circle cx="382.048" cy="77.298" r="8.185"/>
	<circle cx="414.88" cy="147.763" r="8.185"/>
	<circle cx="309.16" cy="368.023" r="8.185"/>
	<circle cx="451.466" cy="65.663" r="8.185"/>
</g>
<g>
</g>
<g>
</g>
<g>
</g>
<g>
</g>
<g>
</g>
<g>
</g>
<g>
</g>
<g>
</g>
<g>
</g>
<g>
</g>
<g>
</g>
<g>
</g>
<g>
</g>
<g>
</g>
<g>
</g>
</svg>
