<?xml version="1.0" encoding="iso-8859-1"?>
<!-- Generator: Adobe Illustrator 19.0.0, SVG Export Plug-In . SVG Version: 6.00 Build 0)  -->
<svg version="1.1" id="Capa_1" xmlns="http://www.w3.org/2000/svg" xmlns:xlink="http://www.w3.org/1999/xlink" x="0px" y="0px"
	 viewBox="0 0 512.001 512.001" style="enable-background:new 0 0 512.001 512.001;" xml:space="preserve">
<path style="fill:#EDECEC;" d="M247.982,44.124c-16.616,0-30.085,13.469-30.085,30.085v34.182c0,16.615,13.469,30.084,30.085,30.084
	s30.083-13.469,30.083-30.084V74.207C278.065,57.593,264.596,44.124,247.982,44.124z M247.982,85.759
	c-6.245,0-11.309-5.063-11.309-11.31c0-6.246,5.063-11.309,11.309-11.309c6.245,0,11.308,5.063,11.308,11.309
	C259.29,80.694,254.227,85.759,247.982,85.759z"/>
<path style="opacity:0.1;enable-background:new    ;" d="M239.85,95.262l-17.397-36.966c-2.883,4.617-4.555,10.068-4.555,15.912
	v34.182c0,16.615,13.469,30.084,30.085,30.084s30.083-13.469,30.083-30.084V95.262H239.85z"/>
<path style="fill:#0081C6;" d="M220.335,155.721l-51.706-109.87L97.421,33.787c-4.13-0.7-6.912-4.616-6.212-8.746L94.381,6.32
	c0.7-4.13,4.616-6.912,8.746-6.212l80.008,13.555c5.514,0.934,10.221,4.507,12.601,9.567l55.507,117.946L220.335,155.721z"/>
<polygon style="opacity:0.1;enable-background:new    ;" points="229.636,95.262 191.882,95.262 220.335,155.721 251.243,141.175 
	"/>
<path style="fill:#E6595A;" d="M386.097,479.691H170.034c-10.967,0-19.858-8.891-19.858-19.858v-298.85
	c0-10.967,8.891-19.858,19.858-19.858h216.061c10.967,0,19.858,8.891,19.858,19.858v298.85
	C405.954,470.799,397.064,479.691,386.097,479.691z"/>
<path style="fill:#0081C6;" d="M405.954,407.527v52.305c0,10.967-8.891,19.858-19.858,19.858H186.232V351.24
	C221.819,381.862,340.072,363.714,405.954,407.527z"/>
<path style="fill:#F3C74F;" d="M381.275,479.691H170.034c-10.967,0-19.858-8.891-19.858-19.858V279.753
	C150.177,366.769,355.337,387.155,381.275,479.691z"/>
<g>
	<path style="fill:#EDECEC;" d="M404.745,108.813H151.386c-8.923,0-16.155,7.232-16.155,16.155l0,0
		c0,8.923,7.233,16.155,16.155,16.155h253.357c8.923,0,16.155-7.232,16.155-16.155l0,0
		C420.9,116.046,413.666,108.813,404.745,108.813z"/>
	<path style="fill:#EDECEC;" d="M404.745,479.691H151.386c-8.923,0-16.155,7.232-16.155,16.155l0,0
		c0,8.923,7.233,16.155,16.155,16.155h253.357c8.923,0,16.155-7.233,16.155-16.155l0,0
		C420.9,486.923,413.666,479.691,404.745,479.691z"/>
</g>
<g>
	<path style="fill:#394049;" d="M191.425,241.744c-4.489,0-8.126-3.638-8.126-8.126v-4.066c0-4.488,3.637-8.126,8.126-8.126
		s8.126,3.638,8.126,8.126v4.066C199.551,238.105,195.914,241.744,191.425,241.744z"/>
	<path style="fill:#394049;" d="M364.723,241.744c-4.489,0-8.126-3.638-8.126-8.126v-4.066c0-4.488,3.637-8.126,8.126-8.126
		c4.488,0,8.126,3.638,8.126,8.126v4.066C372.85,238.105,369.211,241.744,364.723,241.744z"/>
	<path style="fill:#394049;" d="M292.625,262.635c-5.533,0-10.61-1.991-14.551-5.296c-3.941,3.305-9.017,5.296-14.55,5.296
		c-12.504,0-22.677-10.173-22.677-22.677c0-4.488,3.638-8.126,8.126-8.126c4.489,0,8.126,3.638,8.126,8.126
		c0,3.542,2.881,6.424,6.424,6.424s6.424-2.882,6.424-6.424c0-4.488,3.637-8.126,8.126-8.126s8.126,3.638,8.126,8.126
		c0,3.542,2.882,6.424,6.425,6.424c3.543,0,6.424-2.882,6.424-6.424c0-4.488,3.637-8.126,8.126-8.126s8.126,3.638,8.126,8.126
		C315.301,252.462,305.129,262.635,292.625,262.635z"/>
</g>
<g>
	<path style="fill:#FFFFFF;" d="M203.825,270.939h-24.798c-4.489,0-8.126-3.638-8.126-8.126c0-4.488,3.637-8.126,8.126-8.126h24.798
		c4.489,0,8.126,3.638,8.126,8.126C211.951,267.3,208.312,270.939,203.825,270.939z"/>
	<path style="fill:#FFFFFF;" d="M377.122,270.939h-24.799c-4.489,0-8.126-3.638-8.126-8.126c0-4.488,3.637-8.126,8.126-8.126h24.799
		c4.489,0,8.126,3.638,8.126,8.126C385.248,267.3,381.611,270.939,377.122,270.939z"/>
</g>
<path style="opacity:0.05;enable-background:new    ;" d="M404.745,108.813H151.386c-8.923,0-16.155,7.232-16.155,16.155l0,0
	c0,8.923,7.233,16.155,16.155,16.155h253.357c8.923,0,16.155-7.232,16.155-16.155l0,0
	C420.9,116.046,413.666,108.813,404.745,108.813z"/>
<path style="opacity:0.05;enable-background:new    ;" d="M404.745,479.691H151.386c-8.923,0-16.155,7.232-16.155,16.155l0,0
	c0,8.923,7.233,16.155,16.155,16.155h253.357c8.923,0,16.155-7.233,16.155-16.155l0,0
	C420.9,486.923,413.666,479.691,404.745,479.691z"/>
<g>
	<polygon style="opacity:0.2;fill:#FFFFFF;enable-background:new    ;" points="179.125,479.691 302.576,479.691 405.954,376.313 
		405.954,252.861 	"/>
	<path style="opacity:0.15;fill:#FFFFFF;enable-background:new    ;" d="M170.034,141.123c-10.967,0-19.858,8.891-19.858,19.858
		v54.655l74.513-74.513L170.034,141.123L170.034,141.123z"/>
	<path style="opacity:0.2;fill:#FFFFFF;enable-background:new    ;" d="M404.744,108.813h-53.082l-32.31,32.31h53.224l32.304-32.304
		C404.834,108.82,404.789,108.813,404.744,108.813z"/>
	<polygon style="opacity:0.15;fill:#FFFFFF;enable-background:new    ;" points="288.922,108.813 256.612,141.123 284.924,141.123 
		317.234,108.813 	"/>
	<polygon style="opacity:0.2;fill:#FFFFFF;enable-background:new    ;" points="285.55,479.691 253.24,512.001 315.215,512.001 
		347.525,479.691 	"/>
</g>
<g>
</g>
<g>
</g>
<g>
</g>
<g>
</g>
<g>
</g>
<g>
</g>
<g>
</g>
<g>
</g>
<g>
</g>
<g>
</g>
<g>
</g>
<g>
</g>
<g>
</g>
<g>
</g>
<g>
</g>
</svg>
