<?xml version="1.0" encoding="iso-8859-1"?>
<!-- Generator: Adobe Illustrator 19.0.0, SVG Export Plug-In . SVG Version: 6.00 Build 0)  -->
<svg version="1.1" id="Capa_1" xmlns="http://www.w3.org/2000/svg" xmlns:xlink="http://www.w3.org/1999/xlink" x="0px" y="0px"
	 viewBox="0 0 512.001 512.001" style="enable-background:new 0 0 512.001 512.001;" xml:space="preserve">
<path style="fill:#76C9D2;" d="M456.783,142.532c13.187-13.188,3.847-35.736-14.802-35.736H70.022
	c-18.65,0-27.99,22.549-14.802,35.736l170.964,170.957v149.639H162.35c-5.677,0-10.279,4.602-10.279,10.279v20.38
	c0,5.677,4.602,10.279,10.279,10.279h187.318c5.677,0,10.279-4.602,10.279-10.279v-20.38c0-5.677-4.602-10.279-10.279-10.279
	h-63.834V313.487L456.783,142.532z"/>
<ellipse transform="matrix(-0.342 -0.9397 0.9397 -0.342 96.0767 204.9955)" style="fill:#57B089;" cx="119.81" cy="68.86" rx="41.442" ry="33.655"/>
<path style="fill:#E6595A;" d="M105.289,160.301l133.659,133.653c9.421,9.421,24.696,9.42,34.117-0.001l133.646-133.651H105.289z"/>
<g>
	<polygon style="opacity:0.2;fill:#FFFFFF;enable-background:new    ;" points="181.512,106.797 100.5,187.81 155.039,242.347 
		290.589,106.797 	"/>
	<polygon style="opacity:0.2;fill:#FFFFFF;enable-background:new    ;" points="226.185,390.725 226.185,451.503 285.834,391.854 
		285.834,331.076 	"/>
	<path style="fill:#FFFFFF;" d="M205.531,218.594h-16.857c-4.381,0-7.933-3.551-7.933-7.933c0-4.382,3.552-7.933,7.933-7.933h16.857
		c4.381,0,7.933,3.551,7.933,7.933C213.464,215.043,209.912,218.594,205.531,218.594z"/>
	<path style="fill:#FFFFFF;" d="M323.332,218.594h-16.858c-4.382,0-7.933-3.551-7.933-7.933c0-4.382,3.551-7.933,7.933-7.933h16.858
		c4.381,0,7.933,3.551,7.933,7.933C331.265,215.043,327.714,218.594,323.332,218.594z"/>
</g>
<path d="M314.904,198.749c4.382,0,7.933-3.551,7.933-7.933v-2.764c0-4.382-3.551-7.933-7.933-7.933s-7.933,3.551-7.933,7.933v2.764
	C306.971,195.198,310.522,198.749,314.904,198.749z M462.392,148.141c8.412-8.412,10.81-20.467,6.257-31.458
	s-14.771-17.819-26.669-17.819H156.016c1.447-2.471,2.681-5.146,3.672-8.011c3.889-11.246,3.604-24.107-0.803-36.216
	c-8.21-22.557-28.7-36.437-48.201-34.034l-5.6-15.382c-1.499-4.118-6.051-6.239-10.168-4.741c-4.117,1.499-6.24,6.051-4.741,10.168
	l5.599,15.382C79.289,36.725,72.516,60.527,80.726,83.084c2.113,5.807,5.073,11.13,8.698,15.779H70.022
	c-11.897,0-22.116,6.828-26.67,17.82c-4.553,10.992-2.155,23.046,6.259,31.459l168.64,168.633v138.42H162.35
	c-10.042,0-18.212,8.171-18.212,18.213v20.38c0,10.042,8.17,18.212,18.212,18.212h187.318c10.042,0,18.213-8.17,18.213-18.212
	v-20.38c0-10.042-8.171-18.213-18.213-18.213h-55.901V316.773L462.392,148.141z M108.343,37.369c2.251-0.82,4.575-1.21,6.917-1.21
	c11.531,0,23.463,9.471,28.715,23.905c3.166,8.697,3.421,17.789,0.718,25.604c-2.499,7.229-7.268,12.443-13.427,14.685
	c-6.157,2.242-13.164,1.312-19.724-2.619c-7.093-4.249-12.743-11.378-15.907-20.075C89.315,60.294,95.016,42.22,108.343,37.369z
	 M285.834,471.062h63.834c1.295,0,2.347,1.052,2.347,2.347v20.38c0,1.294-1.052,2.346-2.347,2.346H162.351
	c-1.294,0-2.346-1.052-2.346-2.346v-20.38c0-1.295,1.052-2.347,2.346-2.347h63.834c4.381,0,7.933-3.551,7.933-7.933V313.49
	c0-2.104-0.836-4.122-2.324-5.61L60.83,136.923c-3.846-3.846-4.899-9.143-2.819-14.168c2.082-5.025,6.572-8.025,12.011-8.025h40.318
	c4.621,1.784,9.347,2.706,14.029,2.706c1.531,0,3.055-0.098,4.569-0.292l12.821,35.225h-36.47c-3.209,0-6.101,1.932-7.329,4.897
	c-1.228,2.965-0.549,6.376,1.72,8.646l133.659,133.651c6.249,6.249,14.458,9.374,22.668,9.374c8.209,0,16.418-3.125,22.668-9.375
	L412.322,165.91c2.269-2.268,2.947-5.68,1.719-8.645c-1.227-2.965-4.121-4.897-7.329-4.897H158.643l-13.699-37.639h297.036
	c5.44,0,9.929,3,12.011,8.025c2.083,5.024,1.029,10.321-2.818,14.168L280.225,307.878c-1.487,1.487-2.323,3.504-2.323,5.609V463.13
	C277.901,467.511,281.453,471.062,285.834,471.062z M387.559,168.234L267.455,288.344c-3.058,3.059-7.124,4.743-11.449,4.743
	c-4.325,0-8.391-1.685-11.449-4.743L124.443,168.234H387.559z M197.103,198.749c4.381,0,7.933-3.551,7.933-7.933v-2.764
	c0-4.382-3.552-7.933-7.933-7.933c-4.381,0-7.933,3.551-7.933,7.933v2.764C189.17,195.198,192.722,198.749,197.103,198.749z
	 M246.113,212.949c3.656,0,7.059-1.106,9.891-3.003c2.832,1.897,6.234,3.003,9.89,3.003c9.828,0,17.825-7.996,17.825-17.824
	c0-4.382-3.551-7.933-7.933-7.933c-4.382,0-7.933,3.551-7.933,7.933c0,1.079-0.879,1.958-1.959,1.958
	c-1.079,0-1.957-0.878-1.957-1.958c0-4.382-3.552-7.933-7.933-7.933c-4.381,0-7.933,3.551-7.933,7.933
	c0,1.079-0.879,1.958-1.958,1.958c-1.08,0-1.958-0.878-1.958-1.958c0-4.382-3.552-7.933-7.933-7.933s-7.933,3.551-7.933,7.933
	C228.288,204.953,236.285,212.949,246.113,212.949z"/>
<g>
</g>
<g>
</g>
<g>
</g>
<g>
</g>
<g>
</g>
<g>
</g>
<g>
</g>
<g>
</g>
<g>
</g>
<g>
</g>
<g>
</g>
<g>
</g>
<g>
</g>
<g>
</g>
<g>
</g>
</svg>
