<?xml version="1.0" encoding="iso-8859-1"?>
<!-- Generator: Adobe Illustrator 19.0.0, SVG Export Plug-In . SVG Version: 6.00 Build 0)  -->
<svg version="1.1" id="Capa_1" xmlns="http://www.w3.org/2000/svg" xmlns:xlink="http://www.w3.org/1999/xlink" x="0px" y="0px"
	 viewBox="0 0 511.999 511.999" style="enable-background:new 0 0 511.999 511.999;" xml:space="preserve">
<path style="fill:#57B089;" d="M354.624,472.945L354.624,472.945c-86.917,0-157.376-70.46-157.376-157.376V196.43
	c0-86.917,70.46-157.376,157.376-157.376l0,0c86.917,0,157.375,70.46,157.375,157.376v119.14
	C512,402.485,441.54,472.945,354.624,472.945z"/>
<g>
	<path style="opacity:0.2;fill:#FFFFFF;enable-background:new    ;" d="M354.624,39.055C247.248,81.385,252.484,176.052,252.484,256
		s-5.236,174.616,102.14,216.945c-14.581-15.764-45.661-10-45.661-216.945S340.043,54.819,354.624,39.055z"/>
	<path style="opacity:0.2;fill:#FFFFFF;enable-background:new    ;" d="M354.624,39.055C461.999,81.385,456.764,176.052,456.764,256
		s5.236,174.616-102.14,216.945c14.581-15.764,45.661-10,45.661-216.945S369.205,54.819,354.624,39.055z"/>
</g>
<path style="opacity:0.15;enable-background:new    ;" d="M356.245,373.11L199.538,169.592c-1.499,8.723-2.289,17.687-2.289,26.838
	v119.14c0,48.18,21.658,91.295,55.762,120.163c36.776-9.246,70.873-25.237,100.89-46.598
	C359.087,385.444,360.129,378.155,356.245,373.11z"/>
<path style="fill:#57B089;" d="M171.168,131.419L2.348,350.668c-3.885,5.045-2.842,12.333,2.345,16.025
	c49.272,35.062,109.523,55.694,174.603,55.694s125.332-20.632,174.603-55.694c5.188-3.691,6.23-10.98,2.345-16.025l-168.82-219.249
	C183.318,126.085,175.274,126.085,171.168,131.419z"/>
<path style="fill:#EDECEC;" d="M171.168,131.419L13.146,336.643c45.98,35.457,103.596,56.561,166.15,56.561
	s120.17-21.104,166.15-56.56L187.424,131.419C183.318,126.085,175.274,126.085,171.168,131.419z"/>
<path style="fill:#E6595A;" d="M171.168,131.419L28.297,316.967c41.787,32.223,94.149,51.403,150.999,51.403
	c56.849,0,109.212-19.18,150.999-51.403L187.424,131.419C183.318,126.085,175.274,126.085,171.168,131.419z"/>
<g>
	<circle style="fill:#394049;" cx="146.636" cy="211.021" r="8.205"/>
	<circle style="fill:#394049;" cx="212.321" cy="222.642" r="8.206"/>
	<circle style="fill:#394049;" cx="187.503" cy="184.353" r="8.206"/>
	<path style="fill:#394049;" d="M110.717,293.819c-4.563,0-8.262-3.698-8.262-8.262v-3.219c0-4.564,3.699-8.262,8.262-8.262
		s8.262,3.698,8.262,8.262v3.219C118.978,290.121,115.279,293.819,110.717,293.819z"/>
	<path style="fill:#394049;" d="M247.875,293.819c-4.563,0-8.262-3.698-8.262-8.262v-3.219c0-4.564,3.699-8.262,8.262-8.262
		c4.563,0,8.262,3.698,8.262,8.262v3.219C256.137,290.121,252.439,293.819,247.875,293.819z"/>
	<path style="fill:#394049;" d="M190.812,310.353c-4.293,0-8.27-1.375-11.515-3.707c-3.246,2.332-7.224,3.707-11.517,3.707
		c-10.905,0-19.777-8.873-19.777-19.778c0-4.564,3.699-8.262,8.262-8.262c4.563,0,8.262,3.698,8.262,8.262
		c0,1.796,1.46,3.255,3.254,3.255s3.255-1.46,3.255-3.255c0-4.564,3.699-8.262,8.262-8.262c4.563,0,8.262,3.698,8.262,8.262
		c0,1.796,1.46,3.255,3.254,3.255c1.794,0,3.255-1.46,3.255-3.255c0-4.564,3.699-8.262,8.262-8.262s8.262,3.698,8.262,8.262
		C210.589,301.48,201.718,310.353,190.812,310.353z"/>
</g>
<g>
	<path style="fill:#FFFFFF;" d="M120.53,316.925h-19.627c-4.563,0-8.262-3.698-8.262-8.262c0-4.564,3.699-8.262,8.262-8.262h19.627
		c4.563,0,8.262,3.698,8.262,8.262C128.792,313.227,125.093,316.925,120.53,316.925z"/>
	<path style="fill:#FFFFFF;" d="M257.69,316.925h-19.627c-4.563,0-8.262-3.698-8.262-8.262c0-4.564,3.699-8.262,8.262-8.262h19.627
		c4.563,0,8.262,3.698,8.262,8.262C265.951,313.227,262.252,316.925,257.69,316.925z"/>
</g>
<g>
</g>
<g>
</g>
<g>
</g>
<g>
</g>
<g>
</g>
<g>
</g>
<g>
</g>
<g>
</g>
<g>
</g>
<g>
</g>
<g>
</g>
<g>
</g>
<g>
</g>
<g>
</g>
<g>
</g>
</svg>
